<svg version="1.1" id="fi_1055785" xmlns="http://www.w3.org/2000/svg"
  xmlns:xlink="http://www.w3.org/1999/xlink" x="0px" y="0px" viewBox="0 0 512 512"
  style="enable-background:new 0 0 512 512;" xml:space="preserve">
  <path style="fill:#FFF9EB;" d="M137.529,427.69c16.503,9.84,34.289,17.684,53.034,23.217v-96.472
    C164.876,370.996,145.632,397.008,137.529,427.69z"></path>
  <path style="fill:#596775;" d="M256,352.165h-61.793c-1.23,0.733-2.442,1.495-3.644,2.271l0,0c0,21.444-5.58,42.432-15.602,61.391
    c-4.274,8.086-7.42,16.886-9.224,26.177c8.059,3.422,16.343,6.403,24.825,8.907v-0.002c19.524,5.764,40.09,9.02,61.347,9.391
    l4.09,0.036l49.078-52.162L256,352.165z"></path>
  <path style="fill:#3E4954;" d="M321.437,354.435L321.437,354.435c-1.202-0.776-2.414-1.537-3.644-2.271H256v108.169
    c22.71,0,44.665-3.292,65.437-9.424l0,0c8.483-2.504,16.767-5.484,24.825-8.907c-1.803-9.292-4.949-18.091-9.224-26.177
    C327.018,396.868,321.437,375.88,321.437,354.435z"></path>
  <path style="fill:#B6B0A2;" d="M297.207,381.271H256l-12.223,22.007L256,450.104l37.842-37.692c2.28-2.271,3.395-5.258,3.359-8.234
    h0.007v-22.907H297.207z"></path>
  <path style="fill:#FFF9EB;" d="M214.793,381.271v22.907h0.006c-0.036,2.976,1.08,5.964,3.359,8.234L256,450.104v-45.926v-22.907
    h-41.207V381.271z"></path>
  <path style="fill:#FF5368;" d="M256,371.999l-20.104-20.104c-7.788-7.788-21.103-2.273-21.103,8.741v22.725
    c0,11.014,13.316,16.529,21.103,8.741L256,371.999z"></path>
  <path style="fill:#C5324F;" d="M256,371.999l20.104-20.104c7.788-7.788,21.103-2.273,21.103,8.741v22.725
    c0,11.014-13.316,16.529-21.103,8.741L256,371.999z"></path>
  <circle style="fill:#D9435B;" cx="256" cy="371.998" r="15.453"></circle>
  <path style="fill:#FFC98C;" d="M256,61.139c-57.664,0-107.423,44.641-130.501,99.508c-4.906,11.664-16.31,19.02-28.964,18.963
    c-1.151-0.005-2.311,0.032-3.48,0.112c-23.479,1.619-42.22,21.026-43.061,44.546c-0.943,26.378,20.161,48.058,46.327,48.058
    c7.725,0,15.004-1.901,21.409-5.243c17.703,59.62,72.902,103.11,138.269,103.11c79.654,0,144.225-64.572,144.225-144.225
    S335.654,61.139,256,61.139z"></path>
  <path style="fill:#F7A16E;" d="M461.898,222.302c-1.917-25.299-23.531-43.02-46.877-42.732c-12.438,0.153-23.556-7.454-28.5-18.85
    c-13.654-32.5-37.492-63.055-68.362-81.603l0,0c-28.676-17.252-60.989-22.7-93.064-13.655v0.081
    c-43.552,12.312-80.801,49.383-99.952,95.869c-4.962,10.958-15.736,17.912-27.769,18.171c2.761,0.035,11.23,0.613,19.938,5.044
    c0,0.001,0,0.001,0,0.002c6.879,3.502,12.762,8.678,17.116,14.948c2.923,4.208,7.42,7.058,12.467,7.939
    c6.182,1.08,12.497-0.914,16.935-5.351c11.675-11.675,33.711-33.71,33.788-33.787c12.163-12.164,27.516-20.104,44.4-22.964
    c13.887-2.352,25.741-9.848,33.774-20.359c6.793,1.468,13.336,3.679,19.528,6.561c36.988,17.214,54.876,60.338,39.059,97.944
    c-0.326,0.775-0.664,1.547-1.016,2.318c-35.564,77.936-129.949,107.048-202.688,65.507c24.838,43.49,71.655,72.806,125.324,72.806
    c64.407,0,120.405-42.604,138.224-103.133c7.467,3.906,16.121,5.851,25.291,5.111C445.121,270.1,463.84,247.918,461.898,222.302z"></path>
  <g>
    <path style="fill:#46525E;" d="M329.178,179.507c-1.319-4.059-5.682-6.278-9.735-4.96c-7.819,2.539-16.071,2.541-23.861,0.004
      c-4.055-1.323-8.419,0.896-9.739,4.955c-1.321,4.057,0.897,8.418,4.955,9.738c5.46,1.778,11.078,2.666,16.699,2.666
      c5.623,0,11.249-0.889,16.721-2.667C328.276,187.924,330.497,183.565,329.178,179.507z"></path>
    <path style="fill:#46525E;" d="M216.424,174.546c-7.818,2.539-16.069,2.541-23.862,0.004c-4.057-1.323-8.418,0.898-9.739,4.955
      c-1.321,4.057,0.898,8.418,4.955,9.738c5.46,1.778,11.078,2.666,16.698,2.666c5.623,0,11.25-0.889,16.722-2.667
      c4.058-1.319,6.279-5.677,4.96-9.736C224.841,175.449,220.481,173.228,216.424,174.546z"></path>
  </g>
  <g>
    <path style="fill:#35404A;" d="M219.944,218.241c-4.268,0-7.726,3.459-7.726,7.726c0,4.261-3.466,7.726-7.726,7.726
      s-7.726-3.466-7.726-7.726c0-4.267-3.458-7.726-7.726-7.726s-7.726,3.459-7.726,7.726c0,12.781,10.399,23.179,23.179,23.179
      c12.78,0,23.179-10.398,23.179-23.179C227.67,221.701,224.212,218.241,219.944,218.241z"></path>
    <path style="fill:#35404A;" d="M322.962,218.241c-4.268,0-7.726,3.459-7.726,7.726c0,4.261-3.466,7.726-7.726,7.726
      c-4.261,0-7.726-3.466-7.726-7.726c0-4.267-3.458-7.726-7.726-7.726c-4.268,0-7.726,3.459-7.726,7.726
      c0,12.781,10.399,23.179,23.179,23.179s23.179-10.398,23.179-23.179C330.688,221.701,327.23,218.241,322.962,218.241z"></path>
    <path style="fill:#35404A;" d="M267.332,249.147h-22.664c-4.268,0-7.726,3.459-7.726,7.726c0,4.267,3.458,7.726,7.726,7.726h22.664
      c4.268,0,7.726-3.459,7.726-7.726C275.058,252.606,271.6,249.147,267.332,249.147z"></path>
  </g>
  <path style="fill:#596775;" d="M343.912,48.318c-21.63-9.221-53.444-18.287-87.912-18.287c-36.795,0-66.975,3.069-97.379,22.459
    c-27.577,17.583-7.981,39.555-7.981,39.555c-26.63,6.968-40.617,29.173-47.875,45.885c-4.377,10.108-6.443,21.058-6.443,32.057
    v9.623c12.762,0,20.226,4.641,29.154,9.17c3.179,1.613,7.035,0.998,9.556-1.523l40.732-40.732
    c17.265-17.265,38.718-27.792,61.094-31.581c11.101-1.88,19.142-11.64,19.142-22.9c53.699,0,101.288,34.586,117.867,85.663
    l2.099,6.47c1.334,4.11,5.849,6.51,9.865,4.915c5.73-2.274,14.428-9.482,29.845-9.482v-21.452
    C415.678,154.936,415.169,78.704,343.912,48.318z"></path>
  <path style="fill:#3E4954;" d="M415.678,179.61c0-9.662,6.824-79.346-50.005-119.244c0.112,0.16,0.223,0.319,0.331,0.479
    c11.202,16.562-8.577,36.328-25.322,25.401C316.127,70.221,286.922,61.139,256,61.139c-14.86,0-27.27,10.487-30.233,24.464
    c-27.263,5.784-52,19.214-71.855,39.069l-29.399,29.399c-6.863-2.717-15.191-4.95-25.473-5.296
    c-3.139,11.898-2.717,20.212-2.717,30.834c23.061,0,30.279,16.079,38.71,7.648l40.732-40.732
    c17.265-17.265,38.718-27.792,61.094-31.581c11.101-1.88,19.142-11.64,19.142-22.9c51.703,0,100.157,32.345,117.939,85.884
    l2.028,6.247c1.317,4.056,5.717,6.933,11.209,4.32C392.831,185.811,401.499,179.61,415.678,179.61z"></path>
  <circle style="fill:#F7A16E;" cx="96.322" cy="225.97" r="15.453"></circle>
  <circle style="fill:#CE795F;" cx="415.678" cy="225.97" r="15.453"></circle>
  <path style="fill:#F7A16E;" d="M105.566,378.948h20.649v-4.977c0-8.534,6.919-15.453,15.453-15.453s15.453,6.919,15.453,15.453
    v35.882c0,17.068-13.836,30.905-30.905,30.905l0,0c-17.97,0-33.442-12.684-36.967-30.305l-1.865-9.326
    C85.088,389.653,93.864,378.948,105.566,378.948z"></path>
  <path style="fill:#E9E3D5;" d="M118.47,392.455l-45.331,26.172c-7.391,4.267-16.841,1.735-21.108-5.656L2.073,326.442
    c-4.267-7.391-1.735-16.841,5.656-21.108l45.331-26.172c7.391-4.267,16.841-1.735,21.108,5.656l49.958,86.528
    C128.393,378.737,125.86,388.188,118.47,392.455z"></path>
  <path style="fill:#D3CDBF;" d="M74.169,284.818c-4.267-7.391-13.718-9.924-21.108-5.656l-13.383,7.726l49.958,86.528l-45.331,26.172
    l7.726,13.382c4.267,7.391,13.718,9.924,21.108,5.656l45.331-26.172c7.391-4.267,9.924-13.718,5.656-21.108L74.169,284.818z"></path>
  <path style="fill:#35404A;" d="M75.509,334.643c-4.294-1.403-8.672-0.375-11.768,2.291l0.532-4.347
    c0.357-2.92-0.967-5.792-3.421-7.414c-2.454-1.623-5.613-1.719-8.161-0.248l-5.145,2.971c-2.548,1.471-4.044,4.256-3.866,7.193
    c0.179,2.936,2.004,5.52,4.711,6.67l4.03,1.713c-3.857,1.348-6.936,4.625-7.869,9.045c-1.418,6.722,2.912,13.516,9.504,15.414
    l14.907,4.292c5.037,1.449,10.142-1.498,11.405-6.585l3.736-15.055C85.757,343.922,82.039,336.775,75.509,334.643z M59.828,343.279
    c0.007-0.004,0.015-0.007,0.023-0.011s0.013-0.009,0.021-0.013c-0.003,0.011-0.007,0.022-0.01,0.033
    C59.851,343.283,59.839,343.282,59.828,343.279z"></path>
  <path style="fill:#FF7C8B;" d="M410.547,418.601l-45.331,26.172c-7.391,4.267-16.841,1.735-21.108-5.656l-49.958-86.528
    c-4.267-7.391-1.735-16.841,5.656-21.108l45.331-26.172c7.391-4.267,16.841-1.735,21.108,5.656l49.958,86.528
    C420.47,404.883,417.937,414.334,410.547,418.601z"></path>
  <path style="fill:#FF6473;" d="M504.272,331.48l-45.331-26.172c-5.28-3.048-11.601-2.612-16.343,0.572
    c-2.247-5.759-7.833-9.845-14.388-9.845h-52.344c-8.534,0-15.453,6.919-15.453,15.453v99.914c0,8.534,6.919,15.453,15.453,15.453
    h31.959l31.035,17.918c7.391,4.267,16.841,1.735,21.108-5.656l49.958-86.528C514.194,345.198,511.662,335.747,504.272,331.48z"></path>
  <path style="fill:#D9435B;" d="M511.471,340.863c-1.023-3.82-3.505-7.249-7.2-9.383l-10.3-5.946l-3.082-1.78l-47.226,81.797v-94.063
    c0-1.981-0.386-3.867-1.065-5.607c-2.247-5.759-7.833-9.845-14.388-9.845h-15.453v99.914h-52.343v15.453
    c0,0.149,0.019,0.295,0.023,0.443l-24.056,13.889l7.726,13.383c4.267,7.391,13.718,9.924,21.108,5.656l31.035-17.918h11.575
    l31.035,17.918c0.924,0.534,1.88,0.96,2.854,1.286c0.487,0.163,0.979,0.299,1.473,0.411c0.989,0.224,1.988,0.346,2.984,0.372
    c4.483,0.116,8.903-1.727,11.969-5.184c0.681-0.769,1.296-1.616,1.83-2.54l49.958-86.528c0.8-1.386,1.361-2.844,1.696-4.327
    C512.181,345.79,512.11,343.25,511.471,340.863z"></path>
  <path style="fill:#FFC98C;" d="M400.223,481.968L400.223,481.968c-17.069,0-30.905-13.836-30.905-30.905l0,0
    c0-17.069,13.836-30.905,30.905-30.905h20.649c11.702,0,20.478,10.706,18.183,22.18l-1.865,9.326
    C433.666,469.284,418.194,481.968,400.223,481.968z"></path>
  <path style="fill:#F7A16E;" d="M373.463,466.516c5.345,9.235,15.323,15.453,26.76,15.453l0,0c17.97,0,33.442-12.684,36.966-30.305
    l1.865-9.325c2.295-11.474-6.482-22.18-18.183-22.18h-3.333c-4.349,4.21-7.513,9.734-8.79,16.119l-1.866,9.326
    c-0.633,3.164-3.434,5.461-6.661,5.461C388.786,451.063,378.808,457.28,373.463,466.516z"></path>
  <g>
  </g>
  <g>
  </g>
  <g>
  </g>
  <g>
  </g>
  <g>
  </g>
  <g>
  </g>
  <g>
  </g>
  <g>
  </g>
  <g>
  </g>
  <g>
  </g>
  <g>
  </g>
  <g>
  </g>
  <g>
  </g>
  <g>
  </g>
  <g>
  </g>
  </svg>