<svg id="Capa_1" enable-background="new 0 0 512 512" height="512" viewBox="0 0 512 512" width="512" xmlns="http://www.w3.org/2000/svg"><g><g><g><path d="m32.321 377.967c-3.435 0-6.532-2.375-7.312-5.866l-11.453-51.251c-.903-4.043 1.641-8.052 5.684-8.955 4.046-.903 8.052 1.642 8.955 5.684l12.356 55.293c.903 4.042-2.544 4.01-6.587 4.913-.551.123-1.101.182-1.643.182z" fill="#00f2a6"/></g><g><path d="m57.222 379.601c-4.142 0-7.5-3.357-7.5-7.5v-70.59c0-4.143 3.358-7.5 7.5-7.5s7.5 3.357 7.5 7.5v70.59c0 4.143-3.358 7.5-7.5 7.5z" fill="#00f2a6"/></g><g><path d="m82.122 377.967c-.542 0-1.092-.06-1.643-.183-4.042-.903-7.49-.871-6.587-4.913l12.356-55.293c.903-4.042 4.914-6.585 8.955-5.684 4.042.903 6.587 4.912 5.684 8.955l-11.453 51.251c-.78 3.492-3.878 5.867-7.312 5.867z" fill="#00f2a6"/></g></g><g><g><path d="m429.875 377.967c-3.435 0-6.532-2.375-7.312-5.866l-11.453-51.251c-.903-4.043 1.641-8.052 5.684-8.955 4.046-.903 8.052 1.642 8.955 5.684l12.356 55.293c.903 4.042-2.544 4.01-6.587 4.913-.552.123-1.102.182-1.643.182z" fill="#00f2a6"/></g><g><path d="m454.775 379.601c-4.142 0-7.5-3.357-7.5-7.5v-70.59c0-4.143 3.358-7.5 7.5-7.5s7.5 3.357 7.5 7.5v70.59c0 4.143-3.358 7.5-7.5 7.5z" fill="#00f2a6"/></g><g><path d="m479.675 377.967c-.542 0-1.092-.06-1.643-.183-4.042-.903-7.49-.871-6.587-4.913l12.356-55.293c.903-4.042 4.914-6.585 8.955-5.684 4.042.903 6.587 4.912 5.684 8.955l-11.453 51.251c-.78 3.492-3.877 5.867-7.312 5.867z" fill="#00f2a6"/></g></g><path d="m427.56 505.91h-343.12c3.16-14.62 10.33-27.7 20.34-38.03 10.01-10.34 22.86-17.93 37.36-21.55l22.61-4.63 91.25-18.67 28.26 5.78 85.6 17.52c29.01 7.25 51.39 30.35 57.7 59.58z" fill="#6cf5c2"/><path d="m369.862 446.327-113.862-23.298-29.716 6.08 84.146 17.218c29.012 7.251 51.383 30.356 57.696 59.586h59.432c-6.312-29.23-28.684-52.335-57.696-59.586z" fill="#00f2a6"/><g><path d="m284.26 428.81c-4.96 4.99-10.48 9.48-16.46 13.38l-27.61 17.99c-14.32 9.32-32.78 9.32-47.1 0l-27.61-17.99c-.25-.16-.49-.32-.73-.49l91.25-18.67z" fill="#00f2a6"/></g><g><path d="m366.989 287.411v-20.632c0-50.948-41.302-92.25-92.25-92.25h-37.478c-50.948 0-92.25 41.302-92.25 92.25v20.632c0 3.219-1.324 6.322-3.733 8.456-4.278 3.789-6.977 9.321-6.977 15.486v23.809c0 20.001 9.434 38.573 24.844 50.335 3.009 2.297 5.39 5.318 6.769 8.844 7.636 19.533 21.201 36.3 38.925 47.846l27.613 17.989c14.314 9.325 32.783 9.325 47.097 0l27.613-17.989c17.724-11.547 31.289-28.314 38.925-47.846 1.378-3.526 3.759-6.547 6.769-8.844 15.41-11.762 24.844-30.334 24.844-50.335v-23.809c0-6.165-2.698-11.697-6.977-15.486-2.41-2.134-3.734-5.237-3.734-8.456z" fill="#6cf5c2"/></g><path d="m366.989 287.411v-20.632c0-50.948-41.302-92.25-92.25-92.25h-37.478c-.315 0-.627.009-.941.012 50.514.506 91.309 41.604 91.309 92.238v18.062c0 4.603 1.882 8.955 5.047 12.297 3.509 3.706 5.663 8.708 5.663 14.215v23.809c0 19.935-9.372 38.451-24.692 50.219-3.279 2.519-5.713 5.962-7.253 9.8-7.694 19.174-21.122 35.626-38.593 47.007l-27.613 17.989c-1.256.818-2.554 1.539-3.868 2.213 13.665 7.014 30.171 6.294 43.229-2.213l27.613-17.989c17.724-11.547 31.289-28.314 38.925-47.846 1.379-3.526 3.76-6.547 6.769-8.845 15.41-11.762 24.844-30.334 24.844-50.335v-23.809c0-6.165-2.698-11.697-6.977-15.486-2.41-2.134-3.734-5.237-3.734-8.456z" fill="#00f2a6"/><path d="m371.02 149.635c0 38.278-93.407 66.039-93.407 66.039l-41.646 2.22c-54.148-5.626-94.986-34.024-94.986-68.259 0-38.278 51.496-69.309 115.02-69.309s115.019 31.031 115.019 69.309z" fill="#d8ecfe"/><path d="m256 80.326c-6.834 0-13.527.361-20.034 1.05 53.973 5.713 94.986 34.099 94.986 68.259s-41.013 62.546-94.986 68.259c6.506.689 13.2 1.05 20.034 1.05 63.524 0 115.02-31.031 115.02-69.309s-51.496-69.309-115.02-69.309z" fill="#c4e2ff"/><path d="m279.208 149.635c0 31.219-36.048 33.486-36.048 33.486-13.463-5.165-23.023-18.205-23.023-33.486 0-14.855 10.151-28.042 23.023-33.486 0-.001 36.048-.001 36.048 33.486z" fill="#978ecb"/><path d="m256 113.771c-4.526 0-8.852.847-12.84 2.377 13.463 5.166 23.023 18.206 23.023 33.486s-9.561 28.321-23.023 33.486c3.988 1.53 8.314 2.377 12.84 2.377 19.807 0 35.863-16.057 35.863-35.863s-16.056-35.863-35.863-35.863z" fill="#8379c1"/><g><path d="m471.594 505.913h-44.032l9-65.054 10.363-8.406c4.575-3.712 11.125-3.712 15.7 0l10.363 8.406 7.576 54.759c.752 5.442-3.476 10.295-8.97 10.295z" fill="#0ab69f"/><path d="m472.988 440.859-10.363-8.406c-4.575-3.712-11.125-3.712-15.7 0l-4.459 3.617 2.942 2.387c1.903 1.544 3.148 3.753 3.484 6.18l7.209 52.107c.52 3.761-1.394 7.439-4.773 9.17h20.267c5.494 0 9.722-4.853 8.969-10.295z" fill="#04a58a"/><path d="m436.562 440.859 10.363-8.406c4.575-3.712 11.125-3.712 15.7 0l10.363 8.406 14-68.758h-64.426z" fill="#6cf5c2"/><g><path d="m462.369 372.101-11.877 58.333c4.028-1.474 8.651-.805 12.133 2.019l10.363 8.406 14-68.758z" fill="#00f2a6"/></g></g><g><path d="m84.434 505.913h-44.032c-5.494 0-9.722-4.853-8.969-10.295l7.576-54.759 10.363-8.406c4.575-3.712 11.125-3.712 15.7 0l10.363 8.406z" fill="#0ab69f"/><path d="m75.434 440.859-10.363-8.406c-4.575-3.712-11.125-3.712-15.7 0l-4.459 3.617 2.496 2.025c2.189 1.776 3.622 4.318 4.009 7.11l8.399 60.708h24.618z" fill="#04a58a"/><path d="m39.009 440.859 10.363-8.406c4.575-3.712 11.125-3.712 15.7 0l10.363 8.406 14-68.758h-64.426z" fill="#6cf5c2"/><g><path d="m64.816 372.101-11.877 58.333c4.028-1.474 8.651-.805 12.133 2.019l10.363 8.406 14-68.758z" fill="#00f2a6"/><path d="m40.454 432.452c-1.094-.887-2.302-1.556-3.567-2.019l2.123 10.426 5.904-4.789z" fill="#6cf5c2"/></g></g><g><g><g><path d="m287.244 383.555c-4.457 0-7.196-.294-7.458-.323-3.796-.425-6.666-3.634-6.666-7.453 0-4.885 1.008-9.995 2.995-15.189 1.48-3.869 5.816-5.804 9.685-4.325 3.869 1.48 5.805 5.816 4.325 9.685-.333.87-.625 1.729-.875 2.576 5.322-.12 12.916-.745 21.337-2.843 5.271-1.318 10.302-3.063 14.947-5.186 9.1-4.146 14.976-13.392 14.976-23.558 0-4.143 3.358-7.5 7.5-7.5s7.5 3.357 7.5 7.5c0 16.027-9.322 30.631-23.75 37.205-5.472 2.499-11.375 4.549-17.54 6.091-10.979 2.735-20.687 3.32-26.976 3.32z" fill="#0ab69f"/></g><g><path d="m224.753 383.554c-5.278 0-12.961-.41-21.772-2.158-8.031-1.592-15.683-4.033-22.744-7.254-14.425-6.572-23.747-21.176-23.747-37.203 0-4.143 3.358-7.5 7.5-7.5s7.5 3.357 7.5 7.5c0 10.166 5.876 19.411 14.97 23.555 6.007 2.74 12.546 4.822 19.439 6.189 6.606 1.31 12.49 1.747 16.852 1.844-.25-.848-.542-1.707-.875-2.578-1.48-3.868.456-8.204 4.325-9.685 3.873-1.477 8.205.456 9.685 4.325 1.987 5.194 2.995 10.305 2.995 15.189 0 3.819-2.87 7.028-6.665 7.453-.24.029-2.987.323-7.463.323z" fill="#0ab69f"/></g></g><g><g><path d="m241.277 421.914c-.547 0-1.103-.061-1.659-.187-4.041-.912-6.576-4.928-5.664-8.968l1.984-8.785c.913-4.041 4.929-6.582 8.968-5.663 4.041.912 6.576 4.928 5.664 8.968l-1.984 8.785c-.787 3.485-3.881 5.85-7.309 5.85z" fill="#0ab69f"/></g><g><path d="m270.723 421.914c-3.428 0-6.522-2.365-7.309-5.85l-1.984-8.785c-.913-4.04 1.623-8.056 5.664-8.968 4.042-.912 8.056 1.623 8.968 5.663l1.984 8.785c.913 4.04-1.623 8.056-5.664 8.968-.556.126-1.112.187-1.659.187z" fill="#0ab69f"/></g></g></g><g><g><path d="m21.884 227.379c-2.909 0-5.677-1.703-6.896-4.546-9.946-23.19-14.988-47.818-14.988-73.199s5.042-50.01 14.987-73.199c1.632-3.807 6.042-5.571 9.849-3.937 3.807 1.632 5.569 6.042 3.937 9.849-9.139 21.31-13.773 43.949-13.773 67.287s4.634 45.977 13.773 67.287c1.632 3.807-.13 8.217-3.937 9.849-.963.413-1.966.609-2.952.609z" fill="#c4e2ff"/></g></g><g><g><path d="m490.116 227.379c-.986 0-1.989-.195-2.953-.609-3.807-1.632-5.569-6.042-3.937-9.849 9.14-21.311 13.774-43.95 13.774-67.287s-4.634-45.977-13.773-67.287c-1.632-3.807.13-8.217 3.937-9.849 3.806-1.635 8.216.13 9.849 3.937 9.945 23.189 14.987 47.817 14.987 73.199s-5.042 50.01-14.987 73.199c-1.22 2.843-3.988 4.546-6.897 4.546z" fill="#c4e2ff"/></g></g><g><path d="m74.525 250.266c-2.186 0-4.354-.951-5.836-2.783-23.106-28.569-35.32-62.404-35.32-97.85s12.213-69.28 35.32-97.85c2.605-3.221 7.328-3.719 10.548-1.114 3.221 2.604 3.72 7.327 1.115 10.548-20.923 25.87-31.982 56.443-31.982 88.417s11.06 62.547 31.983 88.416c2.604 3.221 2.105 7.943-1.115 10.548-1.389 1.122-3.056 1.668-4.713 1.668z" fill="#d8ecfe"/></g><g><g><path d="m437.475 250.266c-1.657 0-3.324-.546-4.712-1.669-3.221-2.604-3.72-7.327-1.115-10.548 17.506-21.644 28.285-47.04 31.17-73.443.45-4.117 4.152-7.09 8.271-6.642 4.118.45 7.091 4.153 6.641 8.271-3.199 29.269-15.101 57.363-34.418 81.248-1.483 1.832-3.651 2.783-5.837 2.783z" fill="#d8ecfe"/></g></g><g><path d="m469.801 137.576c-3.693 0-6.91-2.729-7.422-6.489-3.461-25.43-13.8-48.937-30.731-69.869-2.604-3.221-2.105-7.943 1.115-10.548 3.22-2.604 7.942-2.106 10.548 1.114 18.416 22.77 30.149 49.492 33.932 77.279.559 4.104-2.316 7.885-6.42 8.443-.344.047-.685.07-1.022.07z" fill="#d8ecfe"/></g><g><g><path d="m256 293.182c-44.033 0-86.525-10.993-119.648-30.953-44.239-26.657-69.611-67.696-69.611-112.595s25.373-85.938 69.612-112.596c33.122-19.959 75.614-30.951 119.647-30.951s86.524 10.992 119.648 30.952c44.239 26.657 69.611 67.696 69.611 112.596 0 44.898-25.373 85.938-69.612 112.595-33.122 19.959-75.613 30.952-119.647 30.952zm0-272.095c-41.344 0-81.086 10.228-111.906 28.8-39.626 23.878-62.354 60.234-62.354 99.748 0 39.513 22.727 75.869 62.353 99.747 30.82 18.572 70.562 28.801 111.906 28.801s81.086-10.229 111.906-28.801c39.626-23.878 62.354-60.234 62.354-99.747 0-39.514-22.727-75.87-62.353-99.748-30.82-18.573-70.562-28.8-111.906-28.8z" fill="#c4e2ff"/></g></g><g><g><path d="m256 259.813c-38.05 0-74.425-9.292-102.425-26.165-33.977-20.474-53.464-51.096-53.464-84.014s19.487-63.54 53.464-84.014c28-16.873 64.375-26.165 102.425-26.165s74.425 9.292 102.425 26.165c33.977 20.474 53.464 51.096 53.464 84.014s-19.487 63.54-53.464 84.014c-28 16.873-64.375 26.165-102.425 26.165zm0-205.357c-35.361 0-68.986 8.528-94.683 24.013-29.365 17.694-46.207 43.634-46.207 71.166s16.841 53.472 46.207 71.166c25.697 15.484 59.322 24.013 94.683 24.013s68.986-8.528 94.683-24.013c29.365-17.694 46.207-43.634 46.207-71.166s-16.841-53.472-46.207-71.166c-25.697-15.485-59.322-24.013-94.683-24.013z" fill="#d8ecfe"/></g></g></g></svg>