<svg id="fi_4625360" enable-background="new 0 0 510 510" height="512" viewBox="0 0 510 510"
  width="512" xmlns="http://www.w3.org/2000/svg">
  <g>
    <g>
      <path
        d="m485.233 170.127c-36.533-91.341-125.848-155.866-230.233-155.866-95.387 0-154.146 53.804-154.308 53.895 0 0-2.443 3.049-2.9 5.076-3.711 16.475-7.179 38.554-7.179 54.666 0 136.895 115.442 247.842 252.337 247.842 52.715 0 111.364-25.265 150.616-55.642.878-.679 3.664-5.246 3.664-5.246.155-.949 4.583-18.615 5.481-43.881z"
        fill="#afe6ff"></path>
      <path
        d="m342.929 368.743c-136.894 0-247.869-110.975-247.869-247.869 0-18.094 1.951-35.725 5.633-52.717-14.198 11.311-27.127 24.147-38.539 38.262l-54.765 144.303c-.171 3.781-.258 7.585-.258 11.408 0 50.82 15.294 98.067 41.53 137.391l365.701 52.449c41.126-34.531 70.987-82.269 82.869-137.119-42.341 33.727-95.963 53.892-154.302 53.892z"
        fill="#73c8f0"></path>
    </g>
    <g>
      <circle cx="258.35" cy="120.567" fill="#ffc305" r="120.567"></circle>
      <path
        d="m190.516 64.131c0-17.746 3.836-34.595 10.72-49.767-37.777 20.359-63.453 60.28-63.453 106.202 0 66.587 53.98 120.567 120.567 120.567 48.841 0 90.898-29.043 109.846-70.8-79.392 42.786-177.68-14.402-177.68-106.202z"
        fill="#ffa50a"></path>
      <path
        d="m363.235 61.076c-53.604 6.686-140.296 5.337-202.698-11.002-.607.841-1.204 1.689-1.79 2.546 62.021 16.464 149.115 18.496 205.998 11.198-.492-.921-.995-1.836-1.51-2.742z"
        fill="#ffa50a"></path>
      <path
        d="m190.614 59.497c.037-.984.085-1.964.145-2.942-10.503-1.825-20.645-3.974-30.213-6.479-.11.152-.223.302-.332.454-.338.473-.672.949-1.004 1.427-.153.22-.301.443-.452.665 10.039 2.665 20.74 4.945 31.856 6.875z"
        fill="#fa870a"></path>
      <path
        d="m161.535 48.705c63.58 11.842 147.978 11.128 195.687 2.86-5.322-7.611-11.498-14.579-18.393-20.765-40.876 4.926-109.733 5.077-158.182-2.414-7.123 6.011-13.543 12.829-19.112 20.319z"
        fill="#ffa50a"></path>
      <path
        d="m191.019 53.155c.708-7.841 2.167-15.464 4.304-22.799-5.051-.586-9.957-1.24-14.667-1.968-6.957 5.87-13.459 12.715-19.109 20.319 9.427 1.755 19.318 3.228 29.472 4.448z"
        fill="#fa870a"></path>
      <path
        d="m375.725 148.224c-61.887 10.572-166.277 8.125-237.382-16.047.526 5.505 1.421 10.902 2.662 16.165 76.649 24.383 179.946 22.575 229.967 15.333 1.915-5 3.51-10.157 4.753-15.451z"
        fill="#ffa50a"></path>
      <path
        d="m248.072 166.935c-7.56-4.644-14.566-10.099-20.903-16.242-30.105-2.978-59.956-8.701-88.827-18.516.258 2.695.606 5.364 1.038 8.004.019.118.039.235.058.352.439 2.632.959 5.237 1.566 7.809 28.187 8.967 62.391 15.842 107.068 18.593z"
        fill="#fa870a"></path>
      <path
        d="m161.297 192.101c4.457 6.038 9.466 11.642 14.949 16.744 58.084 7.113 127.642 5.029 166.063-1.762 5.696-5.528 10.846-11.613 15.365-18.168-51.938 13.179-142.368 11.904-196.377 3.186z"
        fill="#fa870a"></path>
      <path
        d="m378.522 110.807c-.637-7.946-2.04-15.675-4.143-23.111-71.054 3.863-153.488-.636-218.901-30.033-4.023 6.566-7.434 13.546-10.156 20.862 71.008 31.524 155.96 36.997 233.2 32.282z"
        fill="#ffa50a"></path>
      <path
        d="m194.659 95.894c-2.15-8.009-3.499-16.421-3.954-25.174-12.148-3.673-23.944-7.986-35.224-13.056-3.86 6.266-7.371 13.397-10.149 20.865 15.828 7.027 32.352 12.751 49.327 17.365z"
        fill="#fa870a"></path>
      <path
        d="m353.742 123.358c-69.856 4.006-148.931-.425-213.678-26.21-.189.961-.367 1.925-.533 2.894 63.962 25.335 138.555 29.625 206.965 26.599 10.796-.477 21.609-1.246 32.362-2.488.028-.974.044-1.951.049-2.93-8.365.974-16.768 1.654-25.165 2.135z"
        fill="#ffa50a"></path>
      <path
        d="m203.169 118.249c-.552-1.098-1.09-2.206-1.61-3.326-21.358-4.24-42.068-10.039-61.485-17.771-.067.342-.135.684-.199 1.027-.116.615-.234 1.229-.341 1.848-.001.005-.001.01-.002.015 20.318 8.048 41.711 13.966 63.637 18.207z"
        fill="#fa870a"></path>
    </g>
    <g>
      <path
        d="m221.454 298.027c-43.499 0-77.452 14.022-98.586 26.053l-1.458 1.14c-19.093 14.931-30.697 37.616-31.111 61.851-.009.552-.014 1.095-.014 1.631 0 24.441 4.612 47.846 12.995 69.454 21.52 16.681 45.861 29.896 72.186 38.809l58.091-17.701 117.282-133.05c-34.683-30.023-79.913-48.187-129.385-48.187z"
        fill="#2477f9"></path>
      <path
        d="m350.838 346.215h-56.358c-10.981 0-19.861 8.967-19.757 19.913.057 7.286-5.644 13.297-12.93 13.297h-2.815c-4.551 0-8.609 3.01-9.867 7.167-.055.182-.098.368-.143.553-.03.128-.066.253-.091.383-.041.212-.068.43-.095.647-.013.108-.034.215-.044.324-.029.33-.044.663-.038 1.002.089 5.729-4.529 10.402-10.238 10.402-.147 0-.296.005-.446.011-14.65.239-26.455 12.182-26.455 26.89v34.517c0 11.882-9.535 21.938-21.415 21.75-7.903-.125-14.382 6.092-14.68 13.893 24.965 8.453 51.714 13.036 79.534 13.036 60.379 0 116.103-21.708 159.361-58.029-9.466-41.831-32.19-78.633-63.523-105.756z"
        fill="#7ad42f"></path>
      <path
        d="m163.328 365.79c-.82-10.939-10.466-19.008-21.326-17.947-2.911.285-5.552-1.758-5.822-4.67-.795-8.572-6.083-15.633-13.312-19.091-15.842 9.019-24.487 16.918-24.542 16.949-2.085 1.661-3.993 3.512-5.743 5.52v95.185c4.761 2.851 10.234 16.311 16.108 16.709l1.587-.155c13.772-1.348 24.655-12.27 25.954-26.046l3.838-40.715c.24-2.545 2.251-4.562 4.795-4.81l.465-.045c10.615-1.036 18.794-10.249 17.998-20.884z"
        fill="#7ad42f"></path>
      <path
        d="m98.326 341.031c-20.118 16.027-37.043 35.893-49.665 58.49 15.15 22.708 33.95 42.774 55.56 59.36l4.484-.439c-9.577-23.224-14.873-48.665-14.873-75.347 0-14.437 1.557-28.505 4.494-42.064z"
        fill="#62c034"></path>
    </g>
    <g>
      <path
        d="m334.729 201.413-143.42 52.793-13.793-37.471 143.42-52.793c10.347-3.809 21.823 1.492 25.632 11.839 3.809 10.347-1.491 21.823-11.839 25.632z"
        fill="#ff965a"></path>
      <path
        d="m500.925 230.936c-2.665-21.221-8.012-41.608-15.693-60.809l-127.59 42.518 31.994 96.007 98.165-61.052z"
        fill="#39ae96"></path>
      <path
        d="m502.869 262.131c0-10.566-.661-20.977-1.944-31.194l-123.475 41.147 12.186 36.569 113.075-37.681c.102-2.855.158-5.806.158-8.841z"
        fill="#1c9585"></path>
      <path
        d="m389.637 308.652-31.994-96.007 37.299-12.429c17.488 7.178 31.874 21.627 38.32 40.969 6.312 18.943 3.722 38.701-5.487 54.759z"
        fill="#1c9585"></path>
      <g>
        <path
          d="m407.294 249.838c-11.748-35.255-48.874-50.814-85.107-42.562-36.665 8.35-49.77 21.242-59.121 24.358-34.755 11.582-88.532 17.549-88.532 17.549-9.859 1.301-16.796 10.349-15.495 20.208 1.314 9.862 7.991 18.675 26.176 12.854 0 0 95.814-44.007 102.028-17.188 2.863 12.355-51.531 29.411-92.668 40.452h142.137c15.288 0 16.287 22.116 3.074 25.093-.682 3.563-1.391 7.123-2.046 10.692 8.923-2.371 17.919-4.49 26.979-6.347.009-.002.014-.003.014-.003 35.253-11.748 54.309-49.851 42.561-85.106z"
          fill="#39ae96"></path>
        <ellipse cx="179.305" cy="265.731" fill="#62c034" rx="13.908" ry="10.578"
          transform="matrix(.949 -.316 .316 .949 -74.814 70.317)"></ellipse>
      </g>
      <g>
        <path
          d="m319.464 233.665c-29.263-21.438-70.962-40.922-70.962-40.922-19.795-12.35-16.856-25.537-8.702-34.555 8.161-9.004 22.076-9.687 31.079-1.526 0 0 48.056 45.409 86.314 68.652.376.228.772.449 1.18.668z"
          fill="#39ae96"></path>
        <ellipse cx="256.879" cy="173.762" fill="#1c9585" rx="12.596" ry="16.561"
          transform="matrix(.557 -.831 .831 .557 -30.476 290.411)"></ellipse>
      </g>
      <g fill="#ffbe82">
        <path
          d="m370.195 292.452-138.744-64.082 26.899-31.552 128.587 59.385c10.01 4.623 14.377 16.486 9.753 26.496-4.623 10.009-16.485 14.376-26.495 9.753z"></path>
        <path
          d="m370.195 292.452-138.744-64.082 23.551-33.099 131.936 60.931c10.01 4.623 14.377 16.486 9.753 26.496-4.624 10.01-16.486 14.377-26.496 9.754z"></path>
        <path
          d="m387.247 344.007-138.744-64.082 16.743-36.25 138.744 64.082c10.01 4.623 14.377 16.486 9.753 26.496-4.623 10.011-16.486 14.378-26.496 9.754z"></path>
        <path
          d="m334.488 362.051-127.962-57.836 16.743-36.25 127.962 57.836c10.01 4.623 14.377 16.486 9.753 26.496-4.623 10.011-16.486 14.378-26.496 9.754z"></path>
        <path
          d="m283.605 383.154-97.637-44.754 16.743-36.25 97.637 44.754c10.01 4.623 14.377 16.486 9.753 26.496-4.623 10.011-16.486 14.377-26.496 9.754z"></path>
        <path
          d="m283.605 383.154-97.637-44.754 16.743-36.25 97.637 44.754c10.01 4.623 14.377 16.486 9.753 26.496-4.623 10.011-16.486 14.377-26.496 9.754z"></path>
        <path
          d="m255.797 195.632 86.298 39.859-67.836 142.234-85.087-37.844c-39.833-18.398-57.21-65.603-38.812-105.436 18.399-39.835 65.604-57.211 105.437-38.813z"></path>
      </g>
      <path
        d="m242.924 351.858c-32.861-15.225-47.179-54.191-31.992-87.071l33.84-73.265c-16.118-4.733-32.859-4.101-48.028 1.098l-16.466-7.605-48.036 104.002 16.204 7.484c6.791 17.497 19.74 32.621 37.561 41.817l-.037.081 97.814 44.759c7.318 3.38 15.614 1.939 21.36-2.983z"
        fill="#ff965a"></path>
      <path d="m148.073 254.739-40.421-12.659 38.107-73.009 34.518 15.944z" fill="#fff"></path>
      <path d="m88.298 241.601h54.364v37.758h-54.364z" fill="#b6fff6"
        transform="matrix(.908 .419 -.419 .908 119.865 -24.417)"></path>
      <path d="m106.152 160.366h16.341v114.56h-16.341z" fill="#b6fff6"
        transform="matrix(.908 .419 -.419 .908 101.797 -27.879)"></path>
      <path d="m91.689 249.392-73.999-22.091 58.607-114.351 64.711 29.663z" fill="#cb2ad8"></path>
      <path
        d="m76.416 282.46 15.274-33.068-38.634-18.323c-14.254-6.584-20.472-23.475-13.888-37.729l37.13-80.389-14.144-6.533c-32.178 39.797-52.292 89.753-54.765 144.304z"
        fill="#b624c6"></path>
      <path
        d="m274.101 321.231c-6.322-2.92-13.777-.275-16.892 5.892l77.28 34.929c7.344 3.392 15.675 1.93 21.423-3.035z"
        fill="#ff965a"></path>
      <path
        d="m409.583 340.127-118.855-54.896c-6.462-2.985-14.12-.166-17.104 6.296l113.624 52.48c7.744 3.577 16.583 1.755 22.335-3.88z"
        fill="#ff965a"></path>
      <path
        d="m290.454 255.087 83.876 38.74c6.777 1.478 13.807-.712 18.564-5.622l-85.336-39.415c-6.461-2.983-14.119-.164-17.104 6.297z"
        fill="#ff965a"></path>
      <path
        d="m364.012 267.605c-2.965 6.42-.165 14.028 6.255 16.994l16.829 7.773c4.089-1.93 7.551-5.247 9.595-9.673 2.044-4.426 2.325-9.212 1.144-13.576l-16.829-7.773c-6.42-2.966-14.028-.165-16.994 6.255z"
        fill="#ffcea1"></path>
      <path
        d="m380.064 318.698c-2.965 6.42-.165 14.029 6.255 16.994l17.83 8.235c4.089-1.93 7.551-5.247 9.595-9.673s2.325-9.212 1.143-13.576l-17.83-8.235c-6.42-2.966-14.028-.165-16.993 6.255z"
        fill="#ffcea1"></path>
      <g>
        <path
          d="m289.629 327.825c-4.9-11.127-15.735-19.198-35.095-6.176 0 0-22.587 19.25-39.301 30.802-3.557 2.458-5.495 6.65-5.083 10.953.587 6.129 5.736 10.808 11.892 10.808 11.502 0 22.876-2.478 33.329-7.277 13.596-6.242 22.952-10.119 22.952-10.119 11.127-4.884 16.19-17.863 11.306-28.991z"
          fill="#39ae96"></path>
        <ellipse cx="268.436" cy="337.049" fill="#1c9585" rx="16.561" ry="12.596"
          transform="matrix(.848 -.531 .531 .848 -137.956 193.851)"></ellipse>
      </g>
      <g>
        <path
          d="m224.688 292.622c-8.442-8.75-21.398-12.58-35.068 6.327 0 0-7.679 13.88-18.751 30.955-2.213 3.412-2.987 7.566-2.144 11.544 1.674 7.893 9.172 13.142 17.161 12.015 5.287-.746 10.21-3.124 14.08-6.802l24.127-22.929c8.755-8.425 9.022-22.354.595-31.11z"
          fill="#39ae96"></path>
        <ellipse cx="207.986" cy="308.599" fill="#1c9585" rx="16.561" ry="12.596"
          transform="matrix(.612 -.791 .791 .612 -163.359 284.208)"></ellipse>
      </g>
    </g>
  </g>
</svg>