<svg id="fi_2178275" enable-background="new 0 0 493.952 493.952" height="512"
  viewBox="0 0 493.952 493.952" width="512" xmlns="http://www.w3.org/2000/svg">
  <g>
    <path
      d="m115.641 413.692v64.012c0 8.974 7.275 16.248 16.248 16.248 8.974 0 16.248-7.275 16.248-16.248v-14.336-47.878c.001 0-33.666-1.798-32.496-1.798z"
      fill="#00f2a6"></path>
    <g fill="#05e39c">
      <path d="m115.641 413.698v-.006c-.038 0-.034.002 0 .006z"></path>
      <path
        d="m131.905 477.704v-63.088c-7.88-.428-15.763-.863-16.263-.918v64.006c0 8.974 7.275 16.248 16.248 16.248 2.966 0 5.738-.808 8.131-2.196-4.848-2.812-8.116-8.045-8.116-14.052z"></path>
    </g>
    <path
      d="m444.119 268.262v133.355c0 9.292-7.533 16.825-16.825 16.825-9.292 0-16.825-7.533-16.825-16.825v-69.524-63.364c.001 0 32.901-1.216 33.65-.467z"
      fill="#00f2a6"></path>
    <path
      d="m429.556 401.617v-69.524-63.364s6.969-.257 14.563-.463v-.005c-.749-.749-33.649.467-33.649.467v63.364 69.524c0 9.292 7.533 16.825 16.825 16.825 3.546 0 6.831-1.103 9.543-2.975-4.397-3.034-7.282-8.102-7.282-13.849z"
      fill="#05e39c"></path>
    <path
      d="m410.47 222.18h-299.702l-47.761 82.605c3.847 7.005 8.299 13.71 13.329 20.03l32.23 40.5c3.12 3.92 4.82 8.79 4.82 13.8v18.33c0 45.89 37.2 83.09 83.09 83.09 3.34 0 6.66-.41 9.87-1.22 3.22-.81 6.33-2.01 9.28-3.6l24.2-13c5.15-2.77 11.36-2.7 16.45.19l22.17 12.6c5.8 3.3 12.36 5.03 19.03 5.03 45.89 0 83.09-37.2 83.09-83.09v-18.33c0-5.01 1.7-9.88 4.82-13.8l32.23-40.5c1.995-2.506 3.894-5.076 5.706-7.698l.004-.003 1.648-3.789z"
      fill="#ee6161"></path>
    <g>
      <path
        d="m162.836 385.587v-18.33c0-5.01-1.7-9.88-4.82-13.8l-32.23-40.5c-5.03-6.32-9.482-13.025-13.329-20.03l40.905-70.748h-42.594l-47.761 82.605c3.847 7.005 8.299 13.71 13.329 20.03l32.23 40.5c3.12 3.92 4.82 8.79 4.82 13.8v18.33c0 45.89 37.2 83.09 83.09 83.09 3.34 0 6.66-.41 9.87-1.22 3.22-.81 6.33-2.01 9.28-3.6l15.573-8.365c-38.86-6.954-68.363-40.901-68.363-81.762z"
        fill="#e94444"></path>
    </g>
    <path
      d="m261.976 118.711v-61.235c0-1.069.297-2.116.859-3.025l21.603-34.989c1.65-2.673.821-6.178-1.852-7.829l-15.847-9.784c-2.673-1.65-6.178-.821-7.828 1.852l-24.698 40.003c-1.462 2.368-2.237 5.097-2.237 7.88v67.127 56.953h33.703c0 .001-2.578-55.828-3.703-56.953z"
      fill="#d77f4a"></path>
    <path
      d="m251.254 51.584c0-2.783.774-5.512 2.237-7.88l22.366-36.226-9.118-5.629c-2.673-1.65-6.178-.821-7.828 1.852l-24.698 40.003c-1.462 2.368-2.237 5.097-2.237 7.88v67.127 56.953h19.278v-56.953z"
      fill="#c86d36"></path>
    <path
      d="m132.62 0h49.978c27.271 0 49.378 22.107 49.378 49.378v26.078h-53.987c-27.271 0-49.378-22.107-49.378-49.378v-22.069c0-2.214 1.795-4.009 4.009-4.009z"
      fill="#6cf5c2"></path>
    <path
      d="m150.864 26.078v-22.069c0-2.214 1.795-4.009 4.009-4.009h-22.253c-2.214 0-4.009 1.795-4.009 4.009v22.069c0 27.271 22.107 49.378 49.378 49.378h22.254c-27.271 0-49.379-22.107-49.379-49.378z"
      fill="#00f2a6"></path>
    <g id="XMLID_282_">
      <g>
        <path
          d="m437.666 182.375c7.05 17.02 10.78 35.42 10.78 54.2 0 28.85-8.81 56.93-25.12 80.54l-39.99-.83c-3.09 0-5.89-1.25-7.91-3.28-2.03-2.02-3.28-4.82-3.28-7.91 0-10.5-8.51-19.01-19-19.01h-.02c-10.5-.01-19.01 8.5-19.01 19v85.04c0 4.64-1.88 8.83-4.92 11.87s-7.24 4.92-11.87 4.92c-9.28 0-16.79-7.52-16.79-16.79v-13.78c0-4.84-1.96-9.22-5.14-12.4-3.17-3.17-7.56-5.13-12.4-5.13-9.68 0-17.53 7.85-17.53 17.53v30.79c0 4.63-1.87 8.81-4.91 11.84-3.02 3.03-7.21 4.91-11.83 4.91-9.25 0-16.75-7.5-16.75-16.75v-75.41c0-4.38-1.78-8.36-4.65-11.23s-6.84-4.65-11.22-4.65c-8.77 0-15.88 7.11-15.88 15.88v26.62c0 4.63-1.88 8.82-4.91 11.86-3.04 3.03-7.23 4.91-11.86 4.91-9.26 0-16.76-7.51-16.76-16.77v-69.91c0-4.97-2.02-9.48-5.28-12.74s-7.77-5.28-12.75-5.28-9.49 2.02-12.75 5.28-5.28 7.77-5.28 12.74c0 9.03-7.32 16.35-16.35 16.35h-51.28c-3.78-6.9-6.99-14.08-9.57-21.48-5.21-14.92-7.93-30.7-7.93-46.73 0-18.78 3.73-37.18 10.78-54.2 7.05-17.03 17.41-32.67 30.69-45.96 10.66-10.67 23.22-18.99 36.88-24.66 13.66-5.66 28.43-8.66 43.51-8.66 19.78 0 39.27 4.69 56.89 13.68l15.94 8.13c4.26 2.17 9.3 2.17 13.56 0l15.94-8.13c8.81-4.49 18.09-7.91 27.64-10.21 9.54-2.3 19.36-3.47 29.25-3.47 15.08 0 29.85 3 43.51 8.66 13.66 5.67 26.22 13.99 36.88 24.66 13.28 13.29 23.64 28.93 30.69 45.96z"
          fill="#6cf5c2"></path>
      </g>
      <g fill="#00f2a6">
        <path
          d="m255.098 405.437c0 5.182 2.356 9.813 6.053 12.886-.197.218-.386.444-.594.652-3.059 3.069-7.318 4.958-12.008 4.909-9.254-.097-16.572-7.934-16.572-17.189v-74.971c0-3.688-1.261-7.092-3.373-9.789l12.51.008c7.85 0 14.208 6.376 14.185 14.226z"></path>
        <path
          d="m323.658 388.427v-13.78c0-.046 0-.093-.001-.139-.052-6.603-5.592-11.856-12.195-11.856l-17.519-.007c.517.406.989.836 1.453 1.3 3.18 3.18 5.14 7.56 5.14 12.4v13.343c0 9.277 7.338 17.131 16.614 17.226 4.699.048 8.967-1.841 12.046-4.919.197-.197.375-.412.562-.618-3.727-3.081-6.1-7.739-6.1-12.95z"></path>
      </g>
      <g>
        <path
          d="m114.864 293.233c-5.21-14.92-7.93-30.7-7.93-46.73 0-18.78 3.73-37.18 10.78-54.2 7.05-17.03 17.41-32.67 30.69-45.96 10.66-10.67 23.22-18.99 36.88-24.66 10.233-4.24 21.088-6.987 32.23-8.098-15.791-6.906-32.859-10.49-50.148-10.49-15.08 0-29.85 3-43.51 8.66-13.66 5.67-26.22 13.99-36.88 24.66-13.28 13.29-23.64 28.93-30.69 45.96-7.05 17.02-10.78 35.42-10.78 54.2 0 16.03 2.72 31.81 7.93 46.73 2.58 7.4 5.79 14.58 9.57 21.48h51.28c1.694 0 3.328-.258 4.864-.736-1.578-3.547-3.01-7.154-4.286-10.816z"
          fill="#00f2a6"></path>
      </g>
    </g>
    <path
      d="m347.087 169.352v25.103c0 9.248 7.497 16.745 16.745 16.745 9.248 0 16.745-7.497 16.745-16.745v-14.595-9.915c0-5.212-4.277-9.407-9.488-9.298-4.992.104-11.051.232-15.833.34-4.544.103-8.169 3.817-8.169 8.365z"
      fill="#00f2a6"></path>
    <path
      d="m363.833 194.455v-25.103c0-4.547 3.625-8.262 8.17-8.365.523-.012 1.066-.024 1.617-.036-.807-.209-1.653-.322-2.53-.304-4.992.104-11.051.232-15.833.34-4.546.103-8.171 3.818-8.171 8.365v25.103c0 9.248 7.497 16.745 16.745 16.745 3.054 0 5.908-.831 8.373-2.258-4.999-2.897-8.371-8.293-8.371-14.487z"
      fill="#05e39c"></path>
    <path
      d="m211.122 179.726v49.291c0 10.039 8.138 18.177 18.177 18.177 10.039 0 18.177-8.138 18.177-18.177v-18.077-31.796c0-2.832-2.328-5.108-5.159-5.036-6.983.176-19.359.477-26.237.58-2.751.042-4.958 2.286-4.958 5.038z"
      fill="#00f2a6"></path>
    <path
      d="m229.299 229.567v-49.291c0-2.752 2.208-4.996 4.959-5.037 2.958-.044 6.933-.126 11.058-.217-.849-.594-1.88-.941-2.998-.913-6.983.176-19.359.477-26.237.58-2.751.041-4.959 2.286-4.959 5.037v49.291c0 10.039 8.138 18.177 18.177 18.177 3.125 0 6.064-.79 8.632-2.179-5.174-3.204-8.632-8.915-8.632-15.448z"
      fill="#05e39c"></path>
    <g id="XMLID_225_">
      <g>
        <path
          d="m144.686 153.495c19.45 6.95 28.79 30.59 20.85 52.8-7.93 22.21-30.13 34.59-49.58 27.64-5.53-1.98-10.25-5.3-13.98-9.56l1.37-.76c15.19-1.18 27.66-12.42 33.75-29.45 5.55-15.53 2.64-30.75-6.25-41.49l-.07-1c4.64-.38 9.35.19 13.91 1.82z"
          fill="#e94444"></path>
      </g>
    </g>
    <g id="XMLID_226_">
      <g>
        <path
          d="m130.846 152.675c8.89 10.74 11.8 25.96 6.25 41.49-6.09 17.03-18.56 28.27-33.75 29.45l-1.37.76c-9.39-10.72-12.56-27.34-6.88-43.24 6.08-17.01 20.51-28.25 35.68-29.46z"
          fill="#d83131"></path>
      </g>
    </g>
    <path
      d="m189.818 356.647v-69.91c0-.621-.089-1.292-.246-1.991-1.499-6.701-7.663-11.328-14.531-11.328h-15.356-1.051l.847.598c.685.514 1.33 1.074 1.934 1.678 3.26 3.26 5.28 7.77 5.28 12.74v69.486c0 9.277 7.353 17.123 16.63 17.193 4.682.036 8.922-1.851 11.99-4.909.202-.203.386-.424.578-.637-3.711-3.076-6.075-7.721-6.075-12.92z"
      fill="#00f2a6"></path>
  </g>
</svg>