<svg height="512" viewBox="0 0 64 64" width="512" xmlns="http://www.w3.org/2000/svg"><g id="flat"><path d="m39 27h1a6 6 0 0 0 6-6v-6h4a2.286 2.286 0 0 0 1.973-2c.2-1.253-.758-2-1.973-2h-4a4 4 0 0 0 -4 4v6a2 2 0 0 1 -4 0v-14h3a2 2 0 0 0 0-4h-4a3 3 0 0 0 -3 3v15a2 2 0 0 1 -4 0v-16a2.286 2.286 0 0 0 -2-1.973c-1.253-.2-2 .758-2 1.973v16a2 2 0 0 1 -4 0v-15a3 3 0 0 0 -3-3h-4.893a2.4 2.4 0 0 0 -2.08 2c-.2 1.253.758 2 1.973 2h4v14a6 6 0 0 0 6 6 13 13 0 0 0 -13 13v1a20 20 0 0 0 20 20h2a20 20 0 0 0 20-20 14.041 14.041 0 0 0 -14-14z" fill="#b459a1"/><path d="m38 51h-12c-6 0-8-6-8-6s2-6 8-6h12c6 0 8 6 8 6s-2 6-8 6z" fill="#ffd782"/><rect fill="#394d5c" height="12" rx="6" width="12" x="26" y="39"/><path d="m31 43h2v4h-2z" fill="#f4f4e6"/><g fill="#5e2c81"><path d="m18 14h4v4h-4z"/><path d="m26 9h4v4h-4z"/><path d="m34 15h4v4h-4z"/><path d="m42 17h4v4h-4z"/><path d="m48 41.017a9.589 9.589 0 0 0 -1.808-5.428 9.7 9.7 0 0 0 -5.43-3.617l.476-1.944a11.744 11.744 0 0 1 6.57 4.383 11.611 11.611 0 0 1 2.192 6.572z"/><rect height="2" rx="1" width="8" x="28" y="55"/></g><path d="m27 30h2v2h-2z" fill="#f98c96"/><path d="m31 30h2v2h-2z" fill="#f98c96"/><path d="m35 30h2v2h-2z" fill="#f98c96"/><path d="m29 34h2v2h-2z" fill="#f98c96"/><path d="m33 34h2v2h-2z" fill="#f98c96"/></g></svg>