<svg id="Layer_1" enable-background="new 0 0 512 512" height="512" viewBox="0 0 512 512" width="512" xmlns="http://www.w3.org/2000/svg"><g><g><path d="m80 168h-16c-17.673 0-32 14.327-32 32v48h80v-48c0-17.673-14.327-32-32-32z" fill="#be5000"/></g><g><path d="m80 184h-16c-8.837 0-16 7.163-16 16v48h48v-48c0-8.837-7.163-16-16-16z" fill="#dc6e1e"/></g><g><path d="m136 200h32c4.418 0 8 3.582 8 8v40h-48v-40c0-4.418 3.582-8 8-8z" fill="#4b8c41"/></g><g><path d="m168 184h32c4.418 0 8 3.582 8 8v56h-48v-56c0-4.418 3.582-8 8-8z" fill="#91b945"/></g><g><circle cx="432" cy="248" fill="#d7e6e6" r="48"/></g><g><path d="m140 248c0-5.178 6.985-11.4 5.467-16.073-1.572-4.842-10.932-5.758-13.866-9.789-2.963-4.071-.962-13.246-5.033-16.209-4.031-2.933-12.125 1.784-16.967.212-4.672-1.517-8.423-10.141-13.601-10.141s-8.929 8.624-13.602 10.142c-4.842 1.572-12.936-3.145-16.967-.212-4.071 2.963-2.07 12.138-5.033 16.209-2.933 4.031-12.293 4.946-13.865 9.789-1.518 4.672 5.467 10.894 5.467 16.072s-6.985 11.4-5.467 16.073c1.572 4.842 10.932 5.758 13.866 9.789 2.963 4.071.962 13.246 5.033 16.209 4.031 2.933 12.125-1.784 16.967-.212 4.672 1.517 8.423 10.141 13.601 10.141s8.929-8.624 13.602-10.142c4.842-1.572 12.936 3.145 16.967.212 4.071-2.963 2.07-12.138 5.033-16.209 2.933-4.031 12.293-4.946 13.865-9.789 1.518-4.672-5.467-10.894-5.467-16.072z" fill="#d7e6e6"/></g><g><path d="m96 284c-19.851 0-36-16.149-36-36s16.149-36 36-36 36 16.149 36 36-16.149 36-36 36zm0-64c-15.439 0-28 12.561-28 28s12.561 28 28 28 28-12.561 28-28-12.561-28-28-28z" fill="#ff8773"/></g><g><path d="m96 265.333c-9.558 0-17.333-7.775-17.333-17.333s7.775-17.333 17.333-17.333 17.333 7.775 17.333 17.333-7.775 17.333-17.333 17.333zm0-26.666c-5.146 0-9.333 4.187-9.333 9.333s4.187 9.333 9.333 9.333 9.333-4.187 9.333-9.333-4.187-9.333-9.333-9.333z" fill="#ff8773"/></g><g><circle cx="432" cy="248" fill="#fabe19" r="24"/></g><g><circle cx="360" cy="248" fill="#d7e6e6" r="48"/></g><g><circle cx="360" cy="248" fill="#fabe19" r="24"/></g><g><path d="m168 56h328v-16h-328c-4.418 0-8 3.582-8 8 0 4.418 3.582 8 8 8z" fill="#d7322d"/></g><g><path d="m168 88h328v-16h-328c-4.418 0-8 3.582-8 8 0 4.418 3.582 8 8 8z" fill="#d7322d"/></g><g><path d="m160 48h336v-8h-328c-4.418 0-8 3.582-8 8z" fill="#f04b37"/></g><g><path d="m160 80h336v-8h-328c-4.418 0-8 3.582-8 8z" fill="#f04b37"/></g><g><g><path d="m208 260c-6.627 0-12-5.373-12-12 0-13.688 6.326-20.963 10.944-26.275 3.471-3.992 5.056-5.814 5.056-10.527s-1.584-6.535-5.056-10.527c-4.618-5.314-10.944-12.588-10.944-26.276s6.326-20.962 10.945-26.273c3.471-3.991 5.055-5.813 5.055-10.524 0-4.712-1.584-6.533-5.055-10.525-4.619-5.313-10.945-12.588-10.945-26.276s6.326-20.962 10.945-26.273c3.471-3.991 5.055-5.813 5.055-10.524 0-6.627 5.373-12 12-12s12 5.373 12 12c0 13.688-6.326 20.962-10.945 26.272-3.471 3.991-5.055 5.813-5.055 10.524 0 4.713 1.584 6.534 5.056 10.526 4.619 5.312 10.944 12.586 10.944 26.273s-6.326 20.961-10.945 26.272c-3.471 3.992-5.055 5.813-5.055 10.525 0 4.713 1.584 6.535 5.056 10.527 4.619 5.313 10.944 12.587 10.944 26.275s-6.326 20.963-10.944 26.275c-3.472 3.996-5.056 5.818-5.056 10.531 0 6.627-5.373 12-12 12z" fill="#f5871e"/></g><g><path d="m184 260c-6.627 0-12-5.373-12-12 0-13.688 6.326-20.963 10.944-26.275 3.471-3.992 5.056-5.814 5.056-10.527s-1.584-6.535-5.056-10.527c-4.618-5.314-10.944-12.588-10.944-26.276s6.326-20.962 10.945-26.273c3.471-3.991 5.055-5.813 5.055-10.524 0-4.712-1.584-6.533-5.055-10.525-4.619-5.313-10.945-12.588-10.945-26.276s6.326-20.962 10.945-26.273c3.471-3.991 5.055-5.813 5.055-10.524 0-6.627 5.373-12 12-12s12 5.373 12 12c0 13.688-6.326 20.962-10.945 26.272-3.471 3.991-5.055 5.813-5.055 10.524 0 4.713 1.584 6.534 5.056 10.526 4.619 5.312 10.944 12.586 10.944 26.273s-6.326 20.961-10.945 26.272c-3.471 3.992-5.055 5.813-5.055 10.525 0 4.713 1.584 6.535 5.056 10.527 4.619 5.313 10.944 12.587 10.944 26.275s-6.326 20.963-10.944 26.275c-3.472 3.996-5.056 5.818-5.056 10.531 0 6.627-5.373 12-12 12z" fill="#fabe19"/></g><g><path d="m256 260c-6.627 0-12-5.373-12-12 0-13.688 6.326-20.963 10.944-26.275 3.472-3.992 5.056-5.814 5.056-10.527s-1.584-6.535-5.056-10.527c-4.618-5.314-10.944-12.588-10.944-26.276s6.326-20.962 10.945-26.273c3.471-3.991 5.055-5.813 5.055-10.524 0-4.712-1.584-6.533-5.055-10.525-4.619-5.313-10.945-12.588-10.945-26.276s6.326-20.962 10.945-26.273c3.471-3.991 5.055-5.813 5.055-10.524 0-6.627 5.373-12 12-12s12 5.373 12 12c0 13.688-6.326 20.962-10.945 26.272-3.471 3.991-5.055 5.813-5.055 10.524 0 4.713 1.584 6.534 5.056 10.526 4.618 5.312 10.944 12.586 10.944 26.273s-6.326 20.961-10.944 26.272c-3.472 3.992-5.056 5.813-5.056 10.525 0 4.713 1.584 6.535 5.056 10.527 4.619 5.313 10.944 12.587 10.944 26.275s-6.325 20.963-10.944 26.275c-3.472 3.996-5.056 5.818-5.056 10.531 0 6.627-5.373 12-12 12z" fill="#f5871e"/></g><g><path d="m232 260c-6.627 0-12-5.373-12-12 0-13.688 6.326-20.963 10.944-26.275 3.471-3.992 5.056-5.814 5.056-10.527s-1.584-6.535-5.056-10.527c-4.618-5.314-10.944-12.588-10.944-26.276s6.326-20.962 10.945-26.273c3.471-3.991 5.055-5.813 5.055-10.524 0-4.712-1.584-6.533-5.055-10.525-4.619-5.313-10.945-12.588-10.945-26.276s6.326-20.962 10.945-26.273c3.471-3.991 5.055-5.813 5.055-10.524 0-6.627 5.373-12 12-12s12 5.373 12 12c0 13.688-6.326 20.962-10.945 26.272-3.471 3.991-5.055 5.813-5.055 10.524 0 4.713 1.584 6.534 5.056 10.526 4.619 5.312 10.944 12.586 10.944 26.273s-6.326 20.961-10.945 26.272c-3.471 3.992-5.055 5.813-5.055 10.525 0 4.713 1.584 6.535 5.056 10.527 4.619 5.313 10.944 12.587 10.944 26.275s-6.326 20.963-10.944 26.275c-3.472 3.996-5.056 5.818-5.056 10.531 0 6.627-5.373 12-12 12z" fill="#fabe19"/></g><g><path d="m304 260c-6.627 0-12-5.373-12-12 0-13.688 6.325-20.963 10.944-26.275 3.472-3.992 5.056-5.814 5.056-10.527s-1.584-6.535-5.056-10.527c-4.619-5.314-10.944-12.588-10.944-26.276s6.326-20.962 10.945-26.273c3.471-3.991 5.055-5.813 5.055-10.524 0-4.712-1.584-6.533-5.055-10.525-4.619-5.313-10.945-12.588-10.945-26.276s6.326-20.962 10.945-26.273c3.471-3.991 5.055-5.813 5.055-10.524 0-6.627 5.373-12 12-12s12 5.373 12 12c0 13.688-6.326 20.962-10.945 26.272-3.471 3.991-5.055 5.813-5.055 10.524 0 4.713 1.584 6.534 5.056 10.526 4.618 5.312 10.944 12.586 10.944 26.273s-6.326 20.961-10.944 26.272c-3.472 3.992-5.056 5.813-5.056 10.525 0 4.713 1.584 6.535 5.056 10.527 4.619 5.313 10.944 12.587 10.944 26.275s-6.325 20.963-10.944 26.275c-3.472 3.996-5.056 5.818-5.056 10.531 0 6.627-5.373 12-12 12z" fill="#f5871e"/></g><g><path d="m280 260c-6.627 0-12-5.373-12-12 0-13.688 6.325-20.963 10.944-26.275 3.472-3.992 5.056-5.814 5.056-10.527s-1.584-6.535-5.056-10.527c-4.619-5.314-10.944-12.588-10.944-26.276s6.326-20.962 10.945-26.273c3.471-3.991 5.055-5.813 5.055-10.524 0-4.712-1.584-6.533-5.055-10.525-4.619-5.313-10.945-12.588-10.945-26.276s6.326-20.962 10.945-26.273c3.471-3.991 5.055-5.813 5.055-10.524 0-6.627 5.373-12 12-12s12 5.373 12 12c0 13.688-6.326 20.962-10.945 26.272-3.471 3.991-5.055 5.813-5.055 10.524 0 4.713 1.584 6.534 5.056 10.526 4.618 5.312 10.944 12.586 10.944 26.273s-6.326 20.961-10.944 26.272c-3.472 3.992-5.056 5.813-5.056 10.525 0 4.713 1.584 6.535 5.056 10.527 4.619 5.313 10.944 12.587 10.944 26.275s-6.325 20.963-10.944 26.275c-3.472 3.996-5.056 5.818-5.056 10.531 0 6.627-5.373 12-12 12z" fill="#fabe19"/></g></g><g><path d="m336 440h-160c-88.366 0-160-71.634-160-160v-16c0-8.837 7.163-16 16-16h448c8.837 0 16 7.163 16 16v16c0 88.366-71.634 160-160 160z" fill="#f04b37"/></g><g><path d="m176 424c-79.402 0-144-64.598-144-144v-8c0-4.418 3.582-8 8-8s8 3.582 8 8v8c0 70.579 57.42 128 128 128 4.418 0 8 3.582 8 8s-3.582 8-8 8z" fill="#ff6955"/></g><g><path d="m480 248h-160c8.837 0 16 7.163 16 16v16c0 88.365-71.635 160-160 160h160c88.365 0 160-71.635 160-160v-16c0-8.837-7.163-16-16-16z" fill="#d7322d"/></g><g><path d="m320 472h-128c-8.837 0-16-7.163-16-16v-16h160v16c0 8.837-7.163 16-16 16z" fill="#d7322d"/></g></g></svg>