<svg height="512" viewBox="0 0 54 58" width="512" xmlns="http://www.w3.org/2000/svg" id="fi_1970334">
  <g id="014---Alien-In-Bowl" fill="none">
    <path id="Shape" d="m7 46h40v3c0 .5522847-.4477153 1-1 1h-38c-.55228475 0-1-.4477153-1-1z"
      fill="#95a5a5"></path>
    <path id="Shape"
      d="m27 0c-14.9116882 0-27 12.0883118-27 27 0 7.41 2.17 14.12 7 19h40c4.83-4.88 7-11.59 7-19 0-14.9116882-12.0883118-27-27-27z"
      fill="#2980ba"></path>
    <path id="Shape"
      d="m27 0c-12.7 0-23 12.09-23 27 0 7.41 1.85 14.12 6 19h34c4.11-4.88 6-11.59 6-19 0-14.91-10.3-27-23-27z"
      fill="#3b97d3"></path>
    <rect id="Rectangle-path" fill="#95a5a5" height="4" rx="1" width="40" x="7" y="54"></rect>
    <path id="Shape" d="m10 46h34v3c0 .5522847-.4477153 1-1 1h-32c-.5522847 0-1-.4477153-1-1z"
      fill="#bdc3c7"></path>
    <rect id="Rectangle-path" fill="#bdc3c7" height="4" rx="1" width="34" x="10" y="54"></rect>
    <path id="Rectangle-path" d="m9 50h36v4h-36z" fill="#894b9d"></path>
    <path id="Rectangle-path" d="m12 50h30v4h-30z" fill="#955ba5"></path>
    <path id="Shape"
      d="m37 39c0 3 5 7 5 7h-17.31s2.54-1 2.54-7c-.0241933-1.9269956.4184087-3.8312138 1.29-5.55 3.81-6.36 13.48-8.45 13.48-12.45 0-3.32-7.21-4.11-11.52-4.11-.8282823-.0307896-1.6576963.0059989-2.48.11 2.77-.69 7.57-3 13-3 4 0 7 4 7 7 0 6-11 9-11 18z"
      fill="#46b29d"></path>
    <path id="Shape"
      d="m21 46h-9c-1 0-3-4-3-7s3-5 3-7c0-1.39-1.33-2.24-1.92-2.67-.0649224-.0428461-.09497717-.1225484-.0745103-.1975937.020467-.0750454.0868246-.1284534.1645103-.1324063 3.1-.23 5.83.82 5.83 4 0 2-1 3-1 6s4 7 6 7z"
      fill="#46b29d"></path>
    <path id="Shape"
      d="m39.92 46h-15.23s2.54-1 2.54-7c-.0241933-1.9269956.4184087-3.8312138 1.29-5.55 3.81-6.36 13.48-8.45 13.48-12.45s-10-4.34-13.88-4l.39-.13c3.16-.87 5.88-2.33 11.15-2.87 3.09.42 5.34 4.14 5.34 7 0 6-9.31 9-9.31 18 0 3 4.23 7 4.23 7z"
      fill="#65ddb9"></path>
    <path id="Shape"
      d="m21 46h-7.46c-.85 0-2.54-4-2.54-7s2.54-5 2.54-7c-.1136959-1.0899959-.7124363-2.0707548-1.63-2.67-.0397462-.0377588-.0622502-.0901777-.0622502-.145s.022504-.1072412.0622502-.145c1.82.19 4.08 1 4.08 4 0 2-1 3-1 6s4.01 6.96 6.01 6.96z"
      fill="#65ddb9"></path>
    <path id="Shape"
      d="m31 17c0-2.21-4-4-9-4s-9 1.79-9 4c0-4.9705627 4.0294373-9 9-9s9 4.0294373 9 9z"
      fill="#894b9d"></path>
    <path id="Shape"
      d="m31 17c0 4.9705627-4.0294373 9-9 9s-9-4.0294373-9-9c0 2.21 4 4 9 4s9-1.79 9-4z"
      fill="#894b9d"></path>
    <path id="Shape" d="m29 17c0-2.21-3.13-4-7-4s-7 1.79-7 4c0-5 3.13-9 7-9s7 4 7 9z" fill="#955ba5"></path>
    <path id="Shape" d="m29 17c0 5-3.13 9-7 9s-7-4-7-9c0 2.21 3.13 4 7 4s7-1.79 7-4z" fill="#955ba5"></path>
    <ellipse id="Oval" cx="22" cy="17" fill="#fff" rx="9" ry="4"></ellipse>
    <circle id="Oval" cx="22" cy="17" fill="#71c285" r="4"></circle>
    <g fill="#81ccb8">
      <circle id="Oval" cx="22" cy="35" r="1"></circle>
      <circle id="Oval" cx="33" cy="23" r="1"></circle>
      <circle id="Oval" cx="46" cy="36" r="1"></circle>
      <circle id="Oval" cx="37" cy="10" r="1"></circle>
      <circle id="Oval" cx="28" cy="5" r="1"></circle>
      <circle id="Oval" cx="6" cy="26" r="1"></circle>
    </g>
    <circle id="Oval" cx="22" cy="17" fill="#393f4a" r="2"></circle>
  </g>
</svg>