<svg height="512" viewBox="0 0 58 58" width="512" xmlns="http://www.w3.org/2000/svg" id="fi_3388064">
  <g id="Page-1" fill="none" fill-rule="evenodd">
    <g id="010---Shark" fill-rule="nonzero">
      <path id="Shape"
        d="m29 0c12.755 0 28.4 21.179 28.983 55.98.0053392.5338898-.2030151 1.0477507-.5786681 1.4271603-.375653.3794095-.8874154.5928664-1.4213319.5928397h-53.963c-.53409159.0000294-1.04600797-.2135645-1.42169027-.5931915-.37568231-.3796269-.58391769-.8937463-.57830973-1.4278085.619-34.801 17.206-55.979 28.98-55.979z"
        fill="#9fc9d3"></path>
      <path id="Shape"
        d="m29 49c7 0 10 5 14 5 3 0 7 0 7-10s-9-21-21-21-21 11-21 21 4 10 7 10c4 0 7-5 14-5z"
        fill="#cc4b4c"></path>
      <ellipse id="Oval" cx="15.41" cy="18.87" fill="#2c3e50" rx="3" ry="2.438"
        transform="matrix(.5 -.866 .866 .5 -8.637 22.78)"></ellipse>
      <ellipse id="Oval" cx="42.591" cy="18.871" fill="#2c3e50" rx="2.438" ry="3"
        transform="matrix(.866 -.5 .5 .866 -3.729 23.823)"></ellipse>
      <path id="Shape"
        d="m40.16 48.41c1.9784961-5.0059957.3814664-10.7169803-3.9067468-13.9705426-4.2882132-3.2535622-10.2182932-3.2535622-14.5065064 0-4.2882132 3.2535623-5.8852429 8.9645469-3.9067468 13.9705426z"
        fill="#802f34"></path>
      <g fill="#ecf0f1">
        <path id="Shape"
          d="m29 22.9999859s0 5.0000141-3 5.0000141c-1.91 0-2.74-2.18-2.95-4.06 1.9213403-.6251962 3.9295019-.942452 5.95-.9400141z"></path>
        <path id="Shape"
          d="m34.95 23.94c-.21 1.88-1.04 4.06-2.95 4.06-3 0-3-5.0000141-3-5.0000141 2.0204981-.0024379 4.0286597.3148179 5.95.9400141z"></path>
        <path id="Shape"
          d="m14 33.76v.24s0 5-3 5c-.7859563-.0058256-1.51576255-.4083476-1.94-1.07.77035904-2.2654931 1.9052748-4.3900825 3.36-6.29.2292229.8860676.7964049 1.6470966 1.58 2.12z"></path>
        <path id="Shape"
          d="m45.58 31.64c-.2364857.8825685-.8018338 1.6411369-1.58 2.12-.3087561.1603996-.6520768.2427966-1 .24-3 .0000689-3-5-3-5v-.16c.3791188-.5859966.6469299-1.2368792.79-1.92 1.8256687 1.3226423 3.4406262 2.9139992 4.79 4.72z"></path>
        <path id="Shape"
          d="m48.94 37.93c-.4242375.6616524-1.1540437 1.0641744-1.94 1.07-3 0-3-5-3-5v-.24c.7835951-.4729034 1.3507771-1.2339324 1.58-2.12 1.4547252 1.8999175 2.589641 4.0245069 3.36 6.29z"></path>
        <path id="Shape"
          d="m23 23.96v1.04s0 5-3 5c-.8242013-.008306-1.5835267-.4487147-2-1.16-.3791188-.5859966-.6469299-1.2368792-.79-1.92 1.7597982-1.2891246 3.7144976-2.2884183 5.79-2.96z"></path>
        <path id="Shape"
          d="m18 28.84v.16s0 5.0000689-3 5c-.3479232.0027966-.6912439-.0796004-1-.24-.7781662-.4788631-1.3435143-1.2374315-1.58-2.12 1.3493738-1.8060008 2.9643313-3.3973577 4.79-4.72.1430701.6831208.4108812 1.3340034.79 1.92z"></path>
        <path id="Shape"
          d="m40.79 26.92c-.1430701.6831208-.4108812 1.3340034-.79 1.92-.4164733.7112853-1.1757987 1.151694-2 1.16-3 0-3-5-3-5v-1.04c2.0755024.6715817 4.0302018 1.6708754 5.79 2.96z"></path>
        <path id="Shape"
          d="m16.98 53.61c-.6299869.2520577-1.3014837.3843222-1.98.39-1.3650521.1210499-2.7367465-.1422046-3.96-.76.16-1.92.99-4.24 2.96-4.24 2.49 0 2.91 3.43 2.98 4.61z"></path>
        <path id="Shape"
          d="m46.96 53.24c-1.2232535.6177954-2.5949479.8810499-3.96.76-.6812534-.0105698-1.3551526-.1426405-1.99-.39.08-1.17.5-4.61 2.99-4.61 1.97 0 2.8 2.32 2.96 4.24z"></path>
        <path id="Shape"
          d="m28.93 49c-2.0496261.00996-4.071523.4744498-5.92 1.36-.1-1.97.61-5.36 2.99-5.36 2.14 0 2.75 2.54 2.93 4z"></path>
        <path id="Shape"
          d="m22.84 50.44c-2.18 1.04-3.89 2.38-5.61 3.08-.57-1.19-.21-6.52 2.77-6.52 1.88 0 2.58 1.97 2.84 3.44z"></path>
        <path id="Shape"
          d="m34.99 50.36c-1.848477-.8855502-3.8703739-1.35004-5.92-1.36.18-1.46.79-4 2.93-4 2.38 0 3.09 3.39 2.99 5.36z"></path>
        <path id="Shape"
          d="m40.77 53.52c-1.72-.7-3.43-2.04-5.61-3.08.26-1.47.96-3.44 2.84-3.44 2.98 0 3.34 5.33 2.77 6.52z"></path>
      </g>
    </g>
  </g>
</svg>