<svg id="fi_10555561" height="512" viewBox="0 0 60 60" width="512"
  xmlns="http://www.w3.org/2000/svg">
  <path
    d="m15 7.57-10.978 2.76a4 4 0 0 0 -2.9 4.85l9.76 38.8a4.006 4.006 0 0 0 4.86 2.9l13.858-3.48z"
    fill="#2980ba"></path>
  <path
    d="m21.562 51a3.886 3.886 0 0 0 1.63.83l6.408 1.57 14.96 3.65a4 4 0 0 0 4.83-2.94l9.49-38.86a3.99 3.99 0 0 0 -2.94-4.83l-10.94-2.68z"
    fill="#3b97d3"></path>
  <path d="m45 29.52v17.48a4 4 0 0 1 -4 4h-22a4 4 0 0 1 -4-4v-40a4 4 0 0 1 4-4h22a4 4 0 0 1 4 4z"
    fill="#84b5cb"></path>
  <circle cx="20" cy="8" fill="#fff" r="2"></circle>
  <circle cx="40" cy="46" fill="#fff" r="2"></circle>
  <path
    d="m45.588 25.48-6.471-11a3 3 0 0 0 -2.589-1.48h-13.041a3 3 0 0 0 -2.587 1.48l-6.471 11a3.007 3.007 0 0 0 0 3.04l6.471 11a3 3 0 0 0 2.587 1.48h13.041a3 3 0 0 0 2.589-1.48l1.483-2.52 4.99-8.48a3.011 3.011 0 0 0 -.002-3.04z"
    fill="#f0c419"></path>
  <path
    d="m45.588 28.52-4.988 8.48h-9.113a2.986 2.986 0 0 1 -2.579-1.48l-6.471-11a2.96 2.96 0 0 1 0-3.04l4.99-8.48h9.1a3 3 0 0 1 2.589 1.48l6.471 11a3.011 3.011 0 0 1 .001 3.04z"
    fill="#f3d55b"></path>
  <g fill="#fff">
    <path
      d="m25.283 31.961a1 1 0 0 0 .724-.961v-8a1 1 0 0 0 -2 0v4.513l-3.151-5.043a1 1 0 0 0 -1.849.53v8a1 1 0 0 0 2 0v-4.513l3.152 5.043a1 1 0 0 0 1.124.431z"></path>
    <path d="m33.007 24a1 1 0 0 0 0-2h-4a1 1 0 0 0 -1 1v8a1 1 0 0 0 2 0v-3h2a1 1 0 0 0 0-2h-2v-2z"></path>
    <path d="m40.007 22h-4a1 1 0 0 0 0 2h1v7a1 1 0 1 0 2 0v-7h1a1 1 0 0 0 0-2z"></path>
    <path d="m26.007 20h8a1 1 0 0 0 0-2h-8a1 1 0 0 0 0 2z"></path>
    <path d="m34.007 34h-8a1 1 0 0 0 0 2h8a1 1 0 1 0 0-2z"></path>
  </g>
</svg>