<svg id="fi_11564229" enable-background="new 0 0 512 512" viewBox="0 0 512 512"
  xmlns="http://www.w3.org/2000/svg">
  <g>
    <g>
      <g>
        <g>
          <path
            d="m310.084 480.69 113.583-124.047c122.42-133.698 27.574-349.143-153.704-349.143h-27.926c-181.278 0-276.124 215.445-153.704 349.143l113.583 124.047c29.068 31.747 79.1 31.747 108.168 0z"
            fill="#00f2a6"></path>
        </g>
        <path
          d="m177.381 108.32c-8.736 19.518-30.641 30.404-51.94 24.695-4.004-1.074-8.113 1.302-9.186 5.303s1.302 8.113 5.303 9.186c5.126 1.374 10.275 2.029 15.347 2.029 24.985 0 47.996-15.932 56.23-40.377-5.306-.248-10.559-.526-15.754-.836z"
          fill="#3e5959"></path>
        <path
          d="m395.744 138.318c-1.071-4.001-5.185-6.377-9.186-5.303-16.316 4.372-34.008-1.069-45.063-13.864-1.028-1.19-2.35-1.977-3.764-2.348l-5.817 14.09c11.316 11.966 27.153 18.605 43.338 18.605 5.072 0 10.181-.651 15.189-1.994 4.001-1.072 6.375-5.185 5.303-9.186z"
          fill="#3e5959"></path>
        <g>
          <path
            d="m295.811 9.005c129.218 53.222 180.739 227.465 75.271 342.65l-136.92 149.535c26.146 8.121 55.972 1.29 75.923-20.499l113.583-124.047c116.458-127.189 36.292-328.35-127.857-347.639z"
            fill="#05e39c"></path>
        </g>
      </g>
      <g>
        <g>
          <path
            d="m330.521 43.835 9.813 24.195c1.507 3.716 4.444 6.671 8.15 8.201l23.71 9.788c4.109 1.697 4.109 7.517 0 9.214l-23.76 9.809c-3.677 1.518-6.597 4.438-8.115 8.115l-9.809 23.76c-1.697 4.109-7.517 4.109-9.214 0l-9.788-23.71c-1.53-3.706-4.485-6.643-8.201-8.15l-24.195-9.813c-4.148-1.682-4.148-7.555 0-9.237l24.144-9.792c3.746-1.519 6.717-4.49 8.236-8.236l9.792-24.144c1.682-4.147 7.555-4.147 9.237 0z"
            fill="#fff"></path>
        </g>
        <g>
          <g>
            <path
              d="m372.193 86.02-18.476-7.628-22.559 9.313c-3.677 1.518-6.597 4.438-8.115 8.115l-9.357 22.665 7.61 18.432c1.697 4.109 7.517 4.109 9.214 0l9.809-23.76c1.518-3.677 4.438-6.597 8.115-8.115l23.76-9.809c4.109-1.696 4.109-7.516-.001-9.213z"
              fill="#deecf1"></path>
          </g>
        </g>
      </g>
      <g>
        <g>
          <path
            d="m132.861 9.466 6.2 15.287c.952 2.348 2.808 4.215 5.149 5.182l14.98 6.185c2.596 1.072 2.596 4.75 0 5.821l-15.012 6.198c-2.323.959-4.168 2.804-5.127 5.127l-6.198 15.012c-1.072 2.596-4.75 2.596-5.821 0l-6.185-14.98c-.967-2.342-2.834-4.197-5.182-5.149l-15.287-6.2c-2.621-1.063-2.621-4.773 0-5.836l15.255-6.187c2.367-.96 4.244-2.837 5.204-5.204l6.187-15.255c1.064-2.622 4.774-2.622 5.837-.001z"
            fill="#eef5f6"></path>
        </g>
        <g>
          <g>
            <path
              d="m159.191 36.119-11.674-4.82-14.253 5.884c-2.323.959-4.168 2.804-5.127 5.127l-5.912 14.321 4.808 11.646c1.072 2.596 4.75 2.596 5.821 0l6.198-15.012c.959-2.323 2.804-4.168 5.127-5.127l15.012-6.198c2.596-1.072 2.596-4.749 0-5.821z"
              fill="#deecf1"></path>
          </g>
        </g>
      </g>
      <g>
        <path
          d="m257.307 328.01c-37.067-.571-68.228 23.203-75.952 55.139-1.908 7.888 4.055 15.494 12.169 15.555h124.747c8.15.062 14.271-6.575 12.384-14.503-7.488-31.47-37.185-55.634-73.348-56.191z"
          fill="#3e5959"></path>
      </g>
      <g>
        <g>
          <path
            d="m330.656 384.201c-7.489-31.47-37.186-55.633-73.349-56.191-9.213-.142-18.06 1.223-26.274 3.84 3.745.647 7.5 1.547 11.239 2.743 30.54 9.77 50.82 35.826 53.667 64.111h22.333c8.15.062 14.271-6.574 12.384-14.503z"
            fill="#384949"></path>
        </g>
      </g>
    </g>
    <g>
      <g>
        <g>
          <g>
            <g>
              <path
                d="m148.972 313.31c-38.676 0-70.141-31.465-70.141-70.141 0-45.584 37.085-82.669 82.669-82.669s82.669 37.085 82.669 82.669c0 4.143-3.357 7.5-7.5 7.5s-7.5-3.357-7.5-7.5c0-37.312-30.356-67.669-67.669-67.669s-67.669 30.356-67.669 67.669c0 30.404 24.736 55.141 55.141 55.141s55.141-24.736 55.141-55.141c0-23.496-19.116-42.612-42.612-42.612s-42.612 19.116-42.612 42.612c0 8.044 3.127 15.602 8.805 21.279 5.678 5.679 13.235 8.805 21.279 8.805 16.589 0 30.085-13.496 30.085-30.084 0-9.681-7.876-17.557-17.557-17.557s-17.557 7.876-17.557 17.557c0 2.772 2.256 5.028 5.028 5.028s5.028-2.256 5.028-5.028c0-4.143 3.357-7.5 7.5-7.5s7.5 3.357 7.5 7.5c0 11.044-8.984 20.028-20.028 20.028s-20.028-8.984-20.028-20.028c0-17.952 14.604-32.557 32.557-32.557s32.557 14.604 32.557 32.557c0 24.859-20.225 45.084-45.085 45.084-12.051.001-23.374-4.687-31.886-13.198-8.511-8.511-13.198-19.835-13.198-31.886 0-31.768 25.845-57.612 57.612-57.612s57.612 25.845 57.612 57.612c-.001 38.676-31.466 70.141-70.141 70.141z"
                fill="#3e5959"></path>
            </g>
          </g>
        </g>
        <g>
          <g>
            <g>
              <path
                d="m337.972 313.31c-38.676 0-70.141-31.465-70.141-70.141 0-45.584 37.085-82.669 82.669-82.669s82.669 37.085 82.669 82.669c0 4.143-3.357 7.5-7.5 7.5s-7.5-3.357-7.5-7.5c0-37.312-30.356-67.669-67.669-67.669s-67.669 30.356-67.669 67.669c0 30.404 24.736 55.141 55.141 55.141s55.141-24.736 55.141-55.141c0-23.496-19.116-42.612-42.612-42.612s-42.612 19.116-42.612 42.612c0 8.044 3.127 15.602 8.805 21.279 5.678 5.679 13.235 8.805 21.279 8.805 16.589 0 30.085-13.496 30.085-30.084 0-9.681-7.876-17.557-17.557-17.557s-17.557 7.876-17.557 17.557c0 2.772 2.256 5.028 5.028 5.028s5.028-2.256 5.028-5.028c0-4.143 3.357-7.5 7.5-7.5s7.5 3.357 7.5 7.5c0 11.044-8.984 20.028-20.028 20.028s-20.028-8.984-20.028-20.028c0-17.952 14.604-32.557 32.557-32.557s32.557 14.604 32.557 32.557c0 24.859-20.225 45.084-45.085 45.084-12.051.001-23.374-4.687-31.886-13.198-8.511-8.511-13.198-19.835-13.198-31.886 0-31.768 25.845-57.612 57.612-57.612s57.612 25.845 57.612 57.612c-.001 38.676-31.466 70.141-70.141 70.141z"
                fill="#3e5959"></path>
            </g>
          </g>
        </g>
      </g>
      <g>
        <path
          d="m408.99 102.122c-3.679 0-6.89-2.709-7.417-6.456-.577-4.103 2.28-7.895 6.382-8.472 73.933-10.398 89.045-24.556 89.045-27.779 0-.14-3.42-14.524-79.579-26.379-4.093-.638-6.895-4.472-6.258-8.564s4.467-6.893 8.564-6.258c27.236 4.24 48.85 9.394 64.24 15.317 18.864 7.261 28.033 15.727 28.033 25.884 0 10.635-10.108 19.451-30.904 26.954-17.138 6.183-41.043 11.458-71.051 15.679-.355.05-.707.074-1.055.074z"
          fill="#cbe5e8"></path>
      </g>
      <g>
        <path
          d="m48.004 91.368c-.656 0-1.324-.087-1.988-.27-31.394-8.613-46.016-18.681-46.016-31.683 0-8.978 7.068-16.565 21.608-23.198 11.567-5.276 28.031-10.05 48.936-14.188 4.062-.799 8.01 1.837 8.813 5.901.804 4.063-1.838 8.009-5.901 8.813-55.943 11.074-58.456 22.561-58.456 22.672 0 1.977 6.427 9.383 34.984 17.219 3.994 1.096 6.345 5.223 5.248 9.217-.913 3.33-3.934 5.517-7.228 5.517z"
          fill="#cbe5e8"></path>
      </g>
      <g>
        <path
          d="m240.002 111.5c-.029 0-.059 0-.088 0-49.935-.57-97.29-3.79-136.948-9.312-4.103-.571-6.966-4.36-6.395-8.463s4.367-6.964 8.463-6.395c39.04 5.436 85.74 8.606 135.052 9.17 4.142.047 7.461 3.442 7.413 7.585-.047 4.113-3.395 7.415-7.497 7.415z"
          fill="#cbe5e8"></path>
      </g>
    </g>
  </g>
  <g></g>
  <g></g>
  <g></g>
  <g></g>
  <g></g>
  <g></g>
  <g></g>
  <g></g>
  <g></g>
  <g></g>
  <g></g>
  <g></g>
  <g></g>
  <g></g>
  <g></g>
</svg>