<svg height="512pt" viewBox="-28 0 512 512.00059" width="512pt" xmlns="http://www.w3.org/2000/svg">
  <path
    d="m195.582031 406.375c.070313-.796875.113281-1.601562.113281-2.417969v-70.019531h-54.636718v70.019531c0 .816407.042968 1.621094.113281 2.417969zm0 0"
    fill="#a2f9f9" />
  <path
    d="m165.71875 406.375c-.070312-.796875-.121094-1.601562-.121094-2.417969v-70.019531h-24.539062v70.019531c0 .816407.042968 1.621094.113281 2.417969zm0 0"
    fill="#91e0e0" />
  <path
    d="m317.003906 406.375c.070313-.796875.113282-1.601562.113282-2.417969v-70.019531h-54.640626v70.019531c0 .816407.042969 1.621094.113282 2.417969zm0 0"
    fill="#a2f9f9" />
  <path
    d="m328.042969 160.71875h-18.449219c-14.410156 22.578125-39.929688 37.628906-68.972656 37.628906h-24.28125c-29.042969 0-54.566406-15.050781-68.972656-37.628906h-18.449219c-18.777344 0-34 15.132812-34 33.800781v33.601563h119.691406c6.867187 0 12.453125 5.25 12.453125 11.707031s-5.585938 11.707031-12.453125 11.707031h-17.042969l-.101562.886719c-1.820313 15.769531-11.296875 29.734375-25.355469 37.355469l.476563 1.878906h146.90625v-21.730469h-5.726563c-11.660156 0-21.148437-9.425781-21.148437-21.015625v-7.238281c0-11.589844 9.488281-21.015625 21.148437-21.015625h5.726563v-6.738281h-13.746094c-2.214844 0-4.015625-1.789063-4.015625-3.988281v-9.097657c0-2.199219 1.800781-3.988281 4.015625-3.988281h28.390625v-6.292969c0-4.949219 2.421875-9.507812 6.476562-12.1875 3.929688-2.601562 6.628907-6.546875 7.660157-11.007812-5.652344-4.167969-12.652344-6.636719-20.230469-6.636719zm0 0"
    fill="#c6a07d" />
  <path
    d="m147.367188 160.71875h-18.449219c-18.777344 0-34 15.132812-34 33.800781v33.601563h31.574219v-33.601563c0-14.554687 9.253906-26.960937 22.230468-31.71875-.464844-.683593-.914062-1.382812-1.355468-2.082031zm0 0"
    fill="#b29070" />
  <path
    d="m214.609375 228.117188c6.867187 0 12.453125 5.253906 12.453125 11.710937 0 6.453125-5.585938 11.707031-12.453125 11.707031h-17.042969l-.101562.886719c-1.820313 15.769531-11.296875 29.730469-25.355469 37.355469l.476563 1.878906h146.90625v-21.730469h-5.726563c-11.660156 0-21.148437-9.429687-21.148437-21.015625v-7.238281c0-10.550781 7.867187-19.28125 18.074218-20.769531-1.386718-2.394532-2.851562-4.71875-4.378906-6.984375h-.566406c-2.214844 0-4.015625-1.789063-4.015625-3.988281v-2.359376c-5.972657-7.710937-12.761719-14.484374-20.21875-20.105468-12.023438 6.902344-25.988281 10.882812-40.890625 10.882812h-24.28125c-14.902344 0-28.867188-3.980468-40.894532-10.882812-13.511718 10.183594-24.859374 24.144531-33.035156 40.652344zm0 0"
    fill="#a2f9f9" />
  <path
    d="m174.09375 228.117188c6.070312-12.25 13.886719-23.101563 23.039062-32.042969-7.714843-1.84375-15-4.769531-21.6875-8.609375-13.515624 10.183594-24.859374 24.144531-33.035156 40.652344zm0 0"
    fill="#91e0e0" />
  <path
    d="m134.945312 118.28125v-32.988281c0-.054688 0-.109375 0-.164063h-7.640624c-10.621094 0-19.3125 8.550782-19.3125 19v15.886719c0 10.449219 8.691406 18.996094 19.3125 18.996094h10.421874c-1.804687-6.617188-2.78125-13.5625-2.78125-20.730469zm0 0"
    fill="#ffc987" />
  <path
    d="m329.652344 85.128906h-7.644532c0 .054688.003907.109375.003907.164063v32.988281c0 7.167969-.976563 14.113281-2.78125 20.730469h10.421875c10.621094 0 19.3125-8.546875 19.3125-18.996094v-15.886719c0-10.449218-8.691406-19-19.3125-19zm0 0"
    fill="#ffc987" />
  <path
    d="m235.53125 0h-14.109375c-48.3125 0-87.476563 38.1875-87.476563 85.292969v32.988281c0 44.769531 36.886719 81.066406 82.394532 81.066406h24.28125c45.507812 0 82.390625-36.296875 82.390625-81.066406 0 0 0-31.820312 0-32.988281 0-47.105469-39.164063-85.292969-87.480469-85.292969zm0 0"
    fill="#ffd5b3" />
  <path
    d="m165.636719 118.28125s0-31.820312 0-32.988281c0-44.210938 34.503906-80.5625 78.6875-84.863281-2.894531-.28125-5.824219-.429688-8.792969-.429688h-14.109375c-48.3125 0-87.476563 38.1875-87.476563 85.292969v32.988281c0 44.769531 36.886719 81.066406 82.394532 81.066406h24.28125c1.246094 0 2.476562-.039062 3.707031-.09375-43.785156-1.90625-78.691406-37.425781-78.691406-80.972656zm0 0"
    fill="#e5bfa1" />
  <g fill="#775436">
    <path
      d="m289.117188 17.898438c-14.804688-11.207032-33.390626-17.898438-53.585938-17.898438h-14.109375c-39.8125 0-73.390625 25.945312-83.980469 61.429688 7.359375 5.507812 17.871094 4.953124 24.578125-1.699219l10.417969-10.335938c.5625 3.84375 2.3125 7.550781 5.289062 10.507813 7.339844 7.277344 19.242188 7.277344 26.582032 0l10.421875-10.335938c.558593 3.84375 2.308593 7.546875 5.289062 10.5 7.335938 7.285156 19.238281 7.285156 26.578125 0zm0 0" />
    <path
      d="m180.523438 116.335938c-4.144532 0-7.5-3.355469-7.5-7.5v-6.234376c0-4.140624 3.355468-7.5 7.5-7.5 4.140624 0 7.5 3.359376 7.5 7.5v6.234376c0 4.144531-3.359376 7.5-7.5 7.5zm0 0" />
    <path
      d="m276.4375 116.335938c-4.144531 0-7.5-3.355469-7.5-7.5v-6.234376c0-4.140624 3.355469-7.5 7.5-7.5 4.140625 0 7.5 3.359376 7.5 7.5v6.234376c0 4.144531-3.359375 7.5-7.5 7.5zm0 0" />
    <path
      d="m233.839844 125.527344h-5.574219c-6.976563 0-12.648437-5.675782-12.648437-12.652344v-9.5625c0-4.140625 3.355468-7.5 7.5-7.5 4.140624 0 7.5 3.359375 7.5 7.5v7.214844h3.226562c4.140625 0 7.5 3.355468 7.5 7.5-.003906 4.140625-3.359375 7.5-7.503906 7.5zm0 0" />
  </g>
  <path
    d="m228.480469 180.867188c-18.542969 0-33.625-14.996094-33.625-33.429688 0-3.023438 2.46875-5.476562 5.511719-5.476562h56.222656c3.046875 0 5.511718 2.453124 5.511718 5.476562 0 18.433594-15.082031 33.429688-33.621093 33.429688zm0 0"
    fill="#fb8276" />
  <path
    d="m226.417969 147.4375c0-3.023438 2.46875-5.476562 5.515625-5.476562h-31.5625c-3.046875 0-5.515625 2.453124-5.515625 5.476562 0 18.433594 15.085937 33.429688 33.625 33.429688 5.699219 0 11.070312-1.421876 15.78125-3.921876-10.605469-5.628906-17.84375-16.742187-17.84375-29.507812zm0 0"
    fill="#e1756a" />
  <path
    d="m387.824219 196.84375v-6.292969c0-5.289062-2.585938-10.15625-6.921875-13.023437-4.835938-3.199219-7.707032-8.558594-7.683594-14.351563v-4.222656c0-1.027344-.839844-1.863281-1.878906-1.863281h-21.71875c-1.035156 0-1.875.835937-1.875 1.863281v4.246094c.019531 5.773437-2.851563 11.128906-7.6875 14.328125-4.335938 2.867187-6.921875 7.734375-6.921875 13.023437v6.292969zm0 0"
    fill="#e6e9ed" />
  <path
    d="m407.199219 219.652344h-5.730469v51.273437h5.730469c12.230469 0 22.144531-9.855469 22.144531-22.015625v-7.238281c0-12.160156-9.914062-22.019531-22.144531-22.019531zm0 0"
    fill="#f7931e" />
  <path
    d="m319.492188 219.652344h-5.730469c-12.230469 0-22.144531 9.859375-22.144531 22.019531v7.238281c0 12.15625 9.914062 22.015625 22.144531 22.015625h5.730469zm0 0"
    fill="#f7931e" />
  <path
    d="m303.605469 248.910156v-7.238281c0-10 6.703125-18.433594 15.886719-21.121094v-.898437h-5.730469c-12.230469 0-22.144531 9.859375-22.144531 22.019531v7.238281c0 12.15625 9.914062 22.015625 22.144531 22.015625h5.730469v-.898437c-9.183594-2.683594-15.886719-11.121094-15.886719-21.117188zm0 0"
    fill="#de841b" />
  <path d="m318.492188 213.917969h83.980468v77.738281h-83.980468zm0 0" fill="#ffca51" />
  <path d="m318.492188 213.917969h23.988281v77.738281h-23.988281zm0 0" fill="#e5b549" />
  <path
    d="m420.234375 209.929688c0 2.742187-2.257813 4.988281-5.015625 4.988281h-109.472656c-2.761719 0-5.019532-2.246094-5.019532-4.988281v-9.101563c0-2.742187 2.257813-4.984375 5.019532-4.984375h109.472656c2.757812 0 5.015625 2.242188 5.015625 4.984375zm0 0"
    fill="#f7931e" />
  <path
    d="m332.527344 209.929688v-9.101563c0-2.742187 2.257812-4.984375 5.015625-4.984375h-31.796875c-2.761719 0-5.019532 2.242188-5.019532 4.984375v9.101563c0 2.742187 2.257813 4.988281 5.019532 4.988281h31.796875c-2.757813 0-5.015625-2.246094-5.015625-4.988281zm0 0"
    fill="#de841b" />
  <path
    d="m70.4375 246.789062v-19.671874h-16.8125c-7.398438 0-13.453125 5.722656-13.453125 12.710937 0 6.984375 6.054687 12.707031 13.453125 12.707031h17.148438c-.21875-1.890625-.335938-3.804687-.335938-5.746094zm0 0"
    fill="#ef5050" />
  <path
    d="m214.609375 227.117188h-16.8125v19.671874c0 1.941407-.117187 3.855469-.335937 5.746094h17.148437c7.398437 0 13.453125-5.722656 13.453125-12.707031 0-6.988281-6.050781-12.710937-13.453125-12.710937zm0 0"
    fill="#ef5050" />
  <path
    d="m97.605469 291.65625h73.023437c16.679688-8.121094 28.167969-25.15625 28.167969-44.867188v-19.671874h-129.359375v19.671874c0 19.710938 11.488281 36.746094 28.167969 44.867188zm0 0"
    fill="#fb8276" />
  <path
    d="m97.605469 291.65625h31.785156c-16.703125-8.109375-28.210937-25.144531-28.210937-44.867188v-19.671874h-31.742188v19.671874c0 19.710938 11.488281 36.746094 28.167969 44.867188zm0 0"
    fill="#e1756a" />
  <path d="m188.410156 333.9375h80.136719v72.4375h-80.136719zm0 0" fill="#775436" />
  <path d="m188.410156 333.9375h31.828125v72.4375h-31.828125zm0 0" fill="#6b4b30" />
  <path d="m387.015625 405.375h-317.074219l-13.582031 36.058594h344.242187zm0 0" fill="#c6a07d" />
  <path d="m56.359375 441.433594h34.074219v-36.058594h-20.492188zm0 0" fill="#b29070" />
  <path
    d="m59.027344 333.9375-57.863282 153.601562c-3.53125 9.363282 1.246094 19.800782 10.667969 23.308594 9.417969 3.503906 19.914063-1.242187 23.441407-10.609375l62.652343-166.300781zm0 0"
    fill="#775436" />
  <path
    d="m455.796875 487.539062-57.863281-153.601562h-38.898438l62.652344 166.300781c2.738281 7.273438 9.679688 11.765625 17.058594 11.761719 2.121094 0 4.28125-.371094 6.386718-1.152344 9.414063-3.507812 14.191407-13.945312 10.664063-23.308594zm0 0"
    fill="#775436" />
  <path
    d="m21.546875 487.539062 57.863281-153.601562h-20.382812l-57.863282 153.601562c-3.53125 9.363282 1.246094 19.800782 10.667969 23.308594 5.734375 2.132813 11.859375 1.195313 16.578125-1.96875-6.820312-4.578125-9.878906-13.34375-6.863281-21.339844zm0 0"
    fill="#6b4b30" />
  <path
    d="m447.804688 329.785156c0 2.835938-2.320313 5.152344-5.152344 5.152344h-428.347656c-2.832032 0-5.152344-2.316406-5.152344-5.152344v-33.976562c0-2.835938 2.320312-5.152344 5.152344-5.152344h428.347656c2.832031 0 5.152344 2.316406 5.152344 5.152344zm0 0"
    fill="#c6a07d" />
  <path
    d="m56.644531 329.785156v-33.976562c0-2.835938 2.320313-5.152344 5.152344-5.152344h-47.492187c-2.832032 0-5.152344 2.316406-5.152344 5.152344v33.976562c0 2.835938 2.320312 5.152344 5.152344 5.152344h47.492187c-2.832031 0-5.152344-2.316406-5.152344-5.152344zm0 0"
    fill="#b29070" />
  <path
    d="m221.421875 0c-39.355469 0-72.636719 25.339844-83.625 60.199219-.117187.410156-.234375.820312-.355469 1.230469 7.359375 5.507812 17.871094 4.953124 24.578125-1.699219l10.417969-10.335938c.097656.664063.242188 1.324219.414062 1.976563 12.34375-27.726563 39.339844-47.8125 71.472657-50.941406-2.894531-.28125-5.824219-.429688-8.792969-.429688zm0 0"
    fill="#6b4b30" />
</svg>