<svg id="fi_3445925" enable-background="new 0 0 512 512" height="512" viewBox="0 0 512 512"
  width="512" xmlns="http://www.w3.org/2000/svg">
  <g>
    <path
      d="m512 256c0 106.91-65.54 198.51-158.63 236.83-8.315 3.425-16.565-18.541-25.297-15.996-8.731 2.545-17.943 29.6-27.033 31.215-5.954 1.059-11.98 1.911-18.069 2.548-8.863.928-17.86-61.672-26.971-61.672-85.978 0-130.947-5.655-208.483-44.334-29.916-41.895-47.517-93.189-47.517-148.591 0-141.38 114.62-256 256-256s256 114.62 256 256z"
      fill="#3342aa"></path>
    <circle cx="278.801" cy="233.199" fill="#dddddd" r="205.751"></circle>
    <g>
      <path
        d="m237.389 50.243c-20.937 0-37.91 16.973-37.91 37.91v45.891h75.819v-45.891c.001-20.937-16.972-37.91-37.909-37.91z"
        fill="#ac80dd"></path>
      <path
        d="m248.7 51.953c-15.42 4.82-26.61 19.21-26.61 36.2v45.89h-22.61v-45.89c0-20.93 16.97-37.91 37.91-37.91 3.94 0 7.73.6 11.31 1.71z"
        fill="#9d66d5"></path>
      <g>
        <path
          d="m310.314 165.988-8.354-159.122c-.399-7.595-10.742-9.515-13.839-2.568l-64.895 145.528z"
          fill="#b1e4f9"></path>
        <g fill="#90d8f9">
          <path
            d="m296.05.128c-.812-.151-1.962 1.517-2.869 5.11l-38.043 150.511-31.912-5.923 64.888-145.529c1.551-3.473 4.919-4.729 7.936-4.169z"></path>
          <path
            d="m230.655 138.815c-3.965-.736-7.227-3.882-7.913-8.091-.873-5.361 2.765-10.415 8.126-11.289l75.286-12.269c5.363-.874 10.415 2.765 11.289 8.126s-2.765 10.415-8.126 11.289l-75.286 12.269c-1.152.187-2.29.166-3.376-.035z"></path>
          <path
            d="m252.849 89.065c-3.964-.736-7.226-3.882-7.912-8.09-.874-5.361 2.763-10.416 8.124-11.29l50.684-8.266c5.36-.874 10.415 2.763 11.29 8.124.874 5.361-2.763 10.416-8.124 11.29l-50.684 8.266c-1.153.188-2.292.167-3.378-.034z"></path>
          <path
            d="m275.034 39.312c-3.965-.736-7.227-3.883-7.913-8.092-.873-5.361 2.765-10.415 8.126-11.288l26.104-4.252c5.36-.875 10.415 2.765 11.288 8.126s-2.765 10.415-8.126 11.288l-26.104 4.252c-1.152.188-2.29.167-3.375-.034z"></path>
        </g>
      </g>
      <path d="m167.134 57.892c29.306 0 53.064 23.758 53.064 53.064s-23.758 53.064-53.064 53.064z"
        fill="#ffceec"></path>
      <path
        d="m266.48 184.59h-51.03c.14 1.88.24 3.78.24 5.69 0 37.45-28.15 68.3-64.44 72.59 1.04 4.91 1.59 9.99 1.59 15.21 0 32.48-21.2 60.01-50.51 69.53 6.13 11.76 9.61 25.12 9.61 39.29 0 23.83 17.652 18.248 1.882 33.698-8.64-7.64-15.878-5.7-23.408-14.43-5.13-5.95-38.314 4.832-42.894-1.578-20.93-29.31-35.83-63.22-42.89-99.92 2.1-.58 4.24-1.07 6.41-1.47-2.87-7.83-4.43-16.3-4.43-25.12 0-37.45 28.15-68.3 64.44-72.59-1.04-4.91-1.59-9.99-1.59-15.21 0-40.38 32.73-73.11 73.11-73.11h92.08c17.58 0 31.83 14.25 31.83 31.82z"
        fill="#ac80dd"></path>
      <path
        d="m120.33 190.28c0 5.22.56 10.3 1.6 15.21-36.29 4.29-64.45 35.14-64.45 72.59 0 8.82 1.57 17.29 4.44 25.12-20.08 3.75-37.68 14.54-50.14 29.72-2.91-9.2-5.3-18.63-7.15-28.25 2.1-.58 4.24-1.07 6.41-1.47-2.87-7.83-4.43-16.3-4.43-25.12 0-37.45 28.15-68.3 64.44-72.59-1.04-4.91-1.59-9.99-1.59-15.21 0-40.38 32.73-73.11 73.11-73.11h50.88c-40.38 0-73.12 32.73-73.12 73.11z"
        fill="#9d66d5"></path>
      <path d="m155.961 111.064h222.124v51.854h-222.124z" fill="#453d81"></path>
      <circle cx="336.336" cy="149.616" fill="#f9f6f9" r="34.667"></circle>
      <circle cx="336.336" cy="149.616" fill="#453d81" r="20.221"></circle>
      <path
        d="m497.292 249.098c0 7.62-6.18 13.8-13.8 13.8h-4.97v15.96c0 8.08-3.28 15.39-8.57 20.69s-12.61 8.57-20.68 8.57c-15.52 0-28.21-12.09-29.19-27.36l-65.13 7.61c-6.82 17.12-18.59 31.72-33.54 42.05s-33.09 16.38-52.64 16.38c-51.21 0-92.73-41.52-92.73-92.73v-100.46h269.92c17.98 0 32.56 14.58 32.56 32.56v49.13h4.97c7.62 0 13.8 6.18 13.8 13.8z"
        fill="#ffddf1"></path>
      <path
        d="m282.97 304.03v206.56c-8.86.93-17.86 1.41-26.97 1.41-77.51 0-146.97-34.45-193.91-88.87l113.96-269.52z"
        fill="#ffddf1"></path>
      <path
        d="m282.97 438.9v71.69c-8.86.93-17.86 1.41-26.97 1.41-77.51 0-146.97-34.45-193.91-88.87l37.52-88.74c35.33 62.43 102.34 104.56 179.19 104.56 1.39 0 2.78-.01 4.17-.05z"
        fill="#ffceec"></path>
      <path
        d="m197.67 294.87-84.84 173.38c-18.85-12.75-35.92-27.94-50.74-45.12-5.13-5.95-9.99-12.13-14.57-18.54l128.53-250.98 18.48 26z"
        fill="#ffceec"></path>
      <path
        d="m430.578 203.283c-6.097 0-11.039-4.942-11.039-11.039 0-6.097 4.942-11.039 11.039-11.039 6.097 0 11.039 4.942 11.039 11.039 0 6.097-4.942 11.039-11.039 11.039z"
        fill="#eaaadd"></path>
      <path
        d="m462.52 203.283c-6.097 0-11.039-4.942-11.039-11.039 0-6.097 4.942-11.039 11.039-11.039 6.097 0 11.039 4.942 11.039 11.039 0 6.097-4.943 11.039-11.039 11.039z"
        fill="#eaaadd"></path>
      <path
        d="m281.882 345.876c-4.28.61-8.66.92-13.11.92-51.21 0-92.73-41.52-92.73-92.73v-100.46h26.16v100.46c0 46.78 34.65 85.47 79.68 91.81z"
        fill="#ffceec"></path>
      <path
        d="m478.522 262.898v15.45h-12.871c-2.13 0-4.07-.86-5.47-2.26s-2.26-3.34-2.26-5.47c0-4.26 3.46-7.72 7.73-7.72z"
        fill="#eaaadd"></path>
      <g fill="#453d81">
        <path
          d="m109.051 143.82h49.881v-1.65c0-23.331-18.914-42.245-42.245-42.245h-7.636c-12.121 0-21.948 9.826-21.948 21.948 0 12.12 9.826 21.947 21.948 21.947z"></path>
        <path
          d="m89.332 143.82h69.6v1.65c0 23.331-18.914 42.245-42.245 42.245h-27.355c-12.121 0-21.948-9.826-21.948-21.948 0-12.121 9.827-21.947 21.948-21.947z"></path>
        <path d="m199.015 149.616c0 28.356 22.987 51.344 51.344 51.344s51.344-22.987 51.344-51.344"></path>
      </g>
      <circle cx="250.358" cy="149.616" fill="#f9f6f9" r="34.667"></circle>
      <circle cx="250.358" cy="149.616" fill="#453d81" r="20.221"></circle>
      <path d="m285.858 166.045h-67.839v20.015l61.966 2.681z" fill="#453d81"></path>
      <path d="m64.468 153.606c0 33.687 27.309 60.996 60.996 60.996s60.996-27.309 60.996-60.996z"
        fill="#ffceec"></path>
    </g>
    <g>
      <circle cx="417.442" cy="384.154" fill="#ffe07d" r="45.904"></circle>
      <circle cx="417.442" cy="384.154" fill="#ffd064" r="35.948"></circle>
      <path
        d="m422.047 378.323c-4.065-.423-8.589-1.024-11.324-2.275-.764-.35-1.323-1.479-1.389-2.81-.034-.677.014-2.977 2.049-4.166 3.954-2.308 7.265-.801 7.63-.621 2.286 1.126 5.055.186 6.181-2.102 1.126-2.287.186-5.055-2.102-6.181-.786-.388-3.56-1.601-7.326-1.592l-.345-1.433c-.596-2.479-3.089-4.005-5.568-3.409s-4.005 3.089-3.409 5.568l.415 1.724c-.044.025-.088.048-.132.073-4.341 2.536-6.875 7.363-6.614 12.598.241 4.828 2.835 8.946 6.77 10.746 3.184 1.457 7.301 2.344 14.209 3.063 4.325.45 5.014 3.687 5.11 5.058.196 2.815-1.376 6.286-5.293 7.256-4.012.995-5.197 1.086-8.716-.172-2.401-.858-5.043.393-5.901 2.794s.393 5.043 2.793 5.901c3.804 1.359 6.472 1.681 9.478 1.33l.389 1.616c.596 2.479 3.089 4.005 5.568 3.409s4.005-3.089 3.409-5.568l-.498-2.069c5.719-3.302 8.366-9.622 7.982-15.138-.514-7.356-5.885-12.821-13.366-13.6z"
        fill="#ffe07d"></path>
    </g>
    <path
      d="m369.145 364.73 25.086 17.688-25.086 35.357h-15.775v53.735c-16.868 4.398-34.361 7.232-52.329 8.342v-80.907c0-18.895 15.316-34.211 34.222-34.211z"
      fill="#ffddf1"></path>
    <path
      d="m353.37 425.02v67.81c-16.63 6.85-34.15 11.99-52.33 15.22v-70.29c18.26-1.96 35.81-6.32 52.33-12.74z"
      fill="#ffceec"></path>
    <path
      d="m362.295 364.734c-18.895 0-34.222 15.316-34.222 34.211v77.889c-8.881 1.444-17.892 2.458-27.032 3.018v-80.907c0-18.895 15.316-34.211 34.211-34.211z"
      fill="#ffceec"></path>
    <path d="m369.145 364.73h34.409v53.047h-34.409z" fill="#453d81"></path>
  </g>
</svg>